<svg width="251" height="552" viewBox="0 0 251 552" fill="none" xmlns="http://www.w3.org/2000/svg">
<path fill-rule="evenodd" clip-rule="evenodd" d="M-161.369 22.9544C-142.344 8.96743 -120.615 2.05243 -94.2117 2.05243C-75.3467 2.05243 -54.0917 5.58643 -29.7507 12.5944C-13.8958 17.1599 0.523468 21.0416 13.5311 24.5018C10.4144 23.7717 7.21494 23.028 3.92697 22.2636C-9.86203 19.0586 -25.492 15.4246 -43.014 10.9326C-159.63 -18.9628 -187.133 40.4555 -237.061 148.322L-237.064 148.328C-239.572 153.747 -242.138 159.29 -244.775 164.952C-274.249 228.231 -288.391 264.711 -289.039 300.879C-289.698 337.617 -276.788 373.19 -241.406 432.132C-206.015 491.089 -181.216 518.324 -149.905 532.616C-148.943 533.055 -147.975 533.481 -147 533.895C-156.73 531.423 -165.561 528.27 -173.916 524.262C-206.669 508.552 -231.796 480.28 -266.63 419.947C-301.464 359.614 -313.385 323.717 -310.614 287.498C-307.882 251.785 -290.532 216.285 -255.088 154.895C-251.903 149.378 -248.802 143.976 -245.771 138.695L-245.767 138.688C-215.98 86.7957 -192.452 45.8084 -161.369 22.9544ZM-126.862 537.888C-128.607 537.626 -130.324 537.349 -132.013 537.058C-137.977 535.356 -143.62 533.286 -149.075 530.796C-179.973 516.692 -204.534 489.672 -239.691 431.103C-274.858 372.519 -287.691 337.235 -287.04 300.916C-286.398 265.107 -272.315 228.815 -242.962 165.796C-240.449 160.401 -238.001 155.113 -235.606 149.939L-235.249 149.168L-235.247 149.163C-210.596 95.9072 -191.125 53.8429 -163.769 29.5296C-145.451 13.2476 -123.704 5.27063 -96.181 5.27063C-80.614 5.27063 -63.196 7.82363 -43.511 12.8706C-28.8048 16.6402 -15.435 19.8049 -3.36688 22.6195C-6.16357 22.0619 -9.03152 21.495 -11.9756 20.9131L-11.9795 20.9124L-11.9822 20.9118L-12.0349 20.9014L-12.0362 20.9012C-24.8589 18.3668 -39.3901 15.4947 -55.7002 11.8578C-164.505 -12.4044 -186.67 48.2708 -226.908 158.42L-226.912 158.431L-226.931 158.482C-228.947 164 -231.009 169.643 -233.129 175.409C-256.894 240.013 -267.976 277.118 -266.679 313.253C-265.362 349.957 -251.641 384.852 -216.055 442C-180.514 499.077 -156.319 525.093 -126.862 537.888ZM-110.264 539.893C-113.049 539.629 -115.763 539.34 -118.412 539.024C-120.956 538.151 -123.451 537.184 -125.912 536.12C-154.649 523.692 -179.447 497.006 -214.357 440.944C-249.738 384.124 -263.377 349.497 -264.68 313.182C-265.965 277.38 -254.924 240.453 -231.252 176.099C-229.312 170.823 -227.421 165.65 -225.569 160.582L-225.562 160.565L-225.555 160.544L-225.033 159.117C-205.171 104.745 -189.483 61.7998 -165.625 36.2058C-140.642 9.40283 -106.874 2.49383 -56.1362 13.8098C-42.4874 16.853 -30.0883 19.3608 -18.8927 21.5829C-21.4238 21.1719 -24.0175 20.7553 -26.678 20.3279L-26.7484 20.3166C-38.6552 18.4034 -52.1479 16.2353 -67.312 13.3909C-168.651 -5.61756 -185.844 56.0606 -217.056 168.03L-217.058 168.039C-218.625 173.661 -220.228 179.412 -221.879 185.287C-240.329 250.939 -248.568 288.521 -245.487 324.531C-242.397 360.64 -227.47 395.996 -192.247 450.636C-158.765 502.574 -135.914 527.624 -110.264 539.893ZM-94.4371 541.093C-97.7457 540.897 -100.961 540.677 -104.09 540.429C-104.178 540.394 -104.266 540.358 -104.354 540.322C-131.391 529.3 -155.563 503.851 -190.566 449.552C-226.05 394.508 -240.395 360.577 -243.494 324.362C-246.549 288.657 -238.337 251.243 -219.953 185.828C-218.416 180.356 -216.92 174.993 -215.456 169.741L-215.131 168.576L-215.129 168.57C-199.727 113.315 -187.561 69.67 -166.982 42.9619C-150.859 22.0369 -129.635 12.0099 -100.181 12.0099C-90.312 12.0099 -79.514 13.1369 -67.681 15.3569C-55.0454 17.7272 -43.5752 19.6273 -33.2139 21.3012C-35.4881 21.0219 -37.8165 20.74 -40.2028 20.4512L-40.2137 20.4498C-51.2677 19.1118 -63.7977 17.5948 -77.9017 15.4808C-172.106 1.3584 -184.677 63.7938 -207.496 177.13L-207.499 177.144L-207.546 177.379C-208.677 182.996 -209.833 188.74 -211.027 194.607C-224.54 261.047 -230.142 298.968 -225.427 334.77C-220.7 370.668 -205.138 405.25 -169.921 458.115C-138.536 505.226 -116.965 529.195 -94.4371 541.093ZM-78.8984 541.812C-82.4764 541.686 -85.9533 541.54 -89.3352 541.371C-112.883 530.463 -135.568 506.073 -168.257 457.005C-203.743 403.737 -218.7 370.537 -223.444 334.508C-227.172 306.207 -225.97 278.114 -209.067 195.005C-207.857 189.055 -206.684 183.232 -205.538 177.539C-194.278 121.612 -185.384 77.4368 -167.872 49.7708C-149.578 20.8698 -121.921 10.9078 -78.1987 17.4578C-66.4909 19.2132 -55.8729 20.5569 -46.282 21.7275C-48.3544 21.5608 -50.475 21.394 -52.6477 21.2231L-52.6497 21.2229L-52.6684 21.2215C-62.8889 20.4178 -74.4717 19.5071 -87.5317 18.0749C-174.92 8.49931 -183.202 71.4629 -198.237 185.767L-198.239 185.781L-198.288 186.152C-199.027 191.772 -199.783 197.517 -200.566 203.385C-209.503 270.378 -212.664 308.51 -206.462 344.024C-200.241 379.636 -184.136 413.415 -149.019 464.504C-119.475 507.485 -99.0375 530.302 -78.8984 541.812ZM-24.243 542.468C-26.5653 542.474 -28.9226 542.477 -31.3157 542.477C-47.1393 542.477 -61.3949 542.342 -74.3533 541.958C-95.2759 531.259 -116.673 508.03 -147.371 463.371C-182.764 411.881 -198.245 379.441 -204.491 343.68C-209.398 315.589 -209.765 287.47 -198.584 203.65C-197.798 197.763 -197.04 192 -196.298 186.363L-196.298 186.362L-196.256 186.042C-188.838 129.642 -182.978 85.0939 -168.333 56.6149C-155.185 31.0459 -134.948 19.1329 -103.777 19.1329C-98.7277 19.1329 -93.3887 19.4449 -87.7497 20.0639C-74.7006 21.4936 -63.1324 22.4041 -52.9205 23.2079L-52.8057 23.2169L-52.8052 23.217C6.72141 27.8989 26.7744 29.4762 84.1213 112.904C120.124 165.281 138.952 196.216 148.574 230.353C158.339 264.993 158.713 302.283 149.954 367.942C141.314 432.708 131.309 466.352 114.271 487.936C97.3063 509.427 73.0033 520.04 28.2113 534.396C26.55 534.928 24.9152 535.448 23.3061 535.956C21.7042 536.351 20.0777 536.748 18.4263 537.149C16.6091 537.59 14.8209 538.02 13.0608 538.438C11.2807 538.753 9.4733 539.068 7.63797 539.385C5.63129 539.732 3.65692 540.069 1.7139 540.396C-0.231049 540.616 -2.20551 540.836 -4.21021 541.056C-6.43176 541.3 -8.61691 541.536 -10.7668 541.763C-12.8712 541.88 -15.007 541.995 -17.175 542.109C-19.5695 542.234 -21.9251 542.354 -24.243 542.468ZM2.93671 544.177C53.3851 543.138 85.155 539.013 112.148 526.065C145.307 510.161 170.67 481.671 205.729 420.947C240.789 360.223 252.78 324.013 249.975 287.344C247.213 251.248 229.785 215.552 194.187 153.895C137.238 55.2554 107.977 47.4914 21.1193 24.4474L21.0634 24.4326C6.28903 20.5122 -10.4534 16.0696 -29.1977 10.6724C-153.969 -25.2532 -187.192 32.6252 -247.503 137.695L-247.505 137.698C-250.536 142.979 -253.636 148.38 -256.821 153.895C-292.419 215.552 -309.846 251.247 -312.608 287.344C-315.414 324.013 -303.422 360.223 -268.363 420.947C-233.303 481.671 -207.94 510.161 -174.781 526.065C-162.188 532.105 -148.557 536.225 -132.474 539.008C-125.568 540.974 -118.244 542.451 -110.302 543.516C-103.86 545.144 -97.0612 546.264 -89.7188 546.945C-83.7201 548.259 -77.4218 549.05 -70.6484 549.378C-65.0452 550.406 -59.1929 550.895 -52.9257 550.895C-52.8213 550.895 -52.7168 550.895 -52.6122 550.894C-48.9417 551.399 -45.1964 551.636 -41.3617 551.636C-27.8958 551.636 -13.3348 548.71 2.93671 544.177ZM21.1334 541.626C63.5598 538.108 90.8875 532.331 113.837 518.794C143.483 501.307 165.299 471.63 194.332 409.296C223.359 346.978 232.48 310.25 227.985 273.783C223.56 237.882 205.682 203.08 169.755 143.227C129.816 76.6921 104.448 53.3146 65.5155 38.9267C119.36 55.7896 147.043 76.2376 192.455 154.895C227.898 216.285 245.248 251.786 247.98 287.498C250.752 323.717 238.831 359.614 203.997 419.947C169.163 480.28 144.035 508.552 111.283 524.262C87.9871 535.437 60.9831 539.968 21.1334 541.626ZM115.016 511.441C94.6001 526.093 69.7494 533.181 30.863 538.743C67.4213 535.172 92.0033 529.351 112.82 517.072C142.076 499.815 163.677 470.375 192.52 408.453C221.369 346.513 230.444 310.08 225.999 274.028C221.618 238.485 203.82 203.862 168.04 144.256C122.333 68.1098 95.8555 48.9224 45.7869 34.6912C82.1612 47.2061 106.675 69.3877 146.75 133.747C182.888 191.782 201.132 225.671 207.076 261.3C213.111 297.485 206.655 334.591 183.252 398.209C159.84 461.855 141.346 492.543 115.016 511.441ZM39.919 535.353C75.2962 527.93 97.736 519.649 115.72 504.039C138.926 483.896 154.313 452.359 172.49 387.676C190.657 323.032 194.648 285.677 187.212 249.846C179.889 214.561 161.356 181.601 125.12 125.392C85.0109 63.173 61.3362 42.1532 27.365 31.3818C73.8783 43.1793 99.1887 61.1507 145.053 134.805C181.048 192.611 199.215 226.333 205.103 261.629C211.075 297.433 204.644 334.263 181.375 397.518C158.415 459.934 139.483 491.418 113.85 509.816C95.4172 523.044 73.1995 530.033 39.919 535.353ZM115.984 496.611C99.5863 513.791 77.3454 523.236 49.0307 531.302C78.6617 524.45 98.3895 516.433 114.409 502.529C136.992 482.926 152.736 450.573 170.565 387.135C188.636 322.834 192.617 285.735 185.253 250.253C177.995 215.278 159.537 182.473 123.439 126.476C77.5816 55.3399 53.4033 38.5131 10.293 28.9609C41.9557 38.1167 64.8011 58.0264 104.811 118.088C141.041 172.473 159.792 204.492 168.364 239.366C177.067 274.777 175.356 312.264 162.051 377.681C148.737 443.144 136.251 475.377 115.984 496.611ZM56.2222 527.025C81.7733 517.612 101.686 507.108 115.842 489.175C133.348 466.997 143.132 434.211 151.936 368.205C160.735 302.249 160.346 264.74 150.499 229.81C145.652 212.614 138.176 195.402 126.969 175.64C116.397 156.997 102.853 136.625 85.7693 111.771C45.9152 53.7902 23.881 34.9723 -5.63925 27.3284C34.3071 34.8046 57.3916 50.5106 103.147 119.196C139.245 173.384 157.921 205.259 166.422 239.844C175.048 274.936 173.332 312.186 160.092 377.283C147.03 441.499 134.258 474.569 114.537 495.23C100.596 509.837 82.9569 518.778 56.2222 527.025Z" fill="url(#paint0_linear_0_158)"/>
<defs>
<linearGradient id="paint0_linear_0_158" x1="-327.659" y1="162.612" x2="-162.574" y2="669.61" gradientUnits="userSpaceOnUse">
<stop stop-color="#FE0000" stop-opacity="0.01"/>
<stop offset="0.530221" stop-color="#FF0000" stop-opacity="0.48"/>
<stop offset="1" stop-color="#FE0000" stop-opacity="0.01"/>
</linearGradient>
</defs>
</svg>
