<svg width="94" height="94" viewBox="0 0 94 94" fill="none" xmlns="http://www.w3.org/2000/svg">
<g filter="url(#filter0_d_13_274)">
<circle cx="47" cy="30.9999" r="15" fill="#EBF1F5"/>
</g>
<g filter="url(#filter1_d_13_274)">
<path fill-rule="evenodd" clip-rule="evenodd" d="M51.0678 30.9997C51.0678 30.8132 50.9768 30.6381 50.8235 30.5312L45.1032 26.5267C44.9293 26.4043 44.7005 26.3906 44.5111 26.4878C44.3218 26.5868 44.2034 26.7819 44.2034 26.9952V35.0047C44.2034 35.2181 44.3218 35.4137 44.5111 35.5121C44.7005 35.6094 44.9287 35.5957 45.1032 35.4732L50.8235 31.4688C50.9768 31.3624 51.0678 31.1873 51.0678 31.0008C51.0678 31.0003 51.0678 31.0003 51.0678 30.9997C51.0678 31.0003 51.0678 31.0003 51.0678 30.9997Z" fill="#7E0E0F"/>
</g>
<defs>
<filter id="filter0_d_13_274" x="0" y="-6.10352e-05" width="94" height="94" filterUnits="userSpaceOnUse" color-interpolation-filters="sRGB">
<feFlood flood-opacity="0" result="BackgroundImageFix"/>
<feColorMatrix in="SourceAlpha" type="matrix" values="0 0 0 0 0 0 0 0 0 0 0 0 0 0 0 0 0 0 127 0" result="hardAlpha"/>
<feOffset dy="16"/>
<feGaussianBlur stdDeviation="16"/>
<feColorMatrix type="matrix" values="0 0 0 0 0.0823529 0 0 0 0 0.0901961 0 0 0 0 0.0980392 0 0 0 0.24 0"/>
<feBlend mode="normal" in2="BackgroundImageFix" result="effect1_dropShadow_13_274"/>
<feBlend mode="normal" in="SourceGraphic" in2="effect1_dropShadow_13_274" result="shape"/>
</filter>
<filter id="filter1_d_13_274" x="12.2034" y="10.4237" width="70.8645" height="73.1525" filterUnits="userSpaceOnUse" color-interpolation-filters="sRGB">
<feFlood flood-opacity="0" result="BackgroundImageFix"/>
<feColorMatrix in="SourceAlpha" type="matrix" values="0 0 0 0 0 0 0 0 0 0 0 0 0 0 0 0 0 0 127 0" result="hardAlpha"/>
<feOffset dy="16"/>
<feGaussianBlur stdDeviation="16"/>
<feColorMatrix type="matrix" values="0 0 0 0 0.0627451 0 0 0 0 0.0862745 0 0 0 0 0.254902 0 0 0 0.24 0"/>
<feBlend mode="normal" in2="BackgroundImageFix" result="effect1_dropShadow_13_274"/>
<feBlend mode="normal" in="SourceGraphic" in2="effect1_dropShadow_13_274" result="shape"/>
</filter>
</defs>
</svg>
