<svg width="44" height="45" viewBox="0 0 44 45" fill="none" xmlns="http://www.w3.org/2000/svg">
<path d="M43.2727 7.27262H40.3637V2.90905C40.3637 2.71617 40.2871 2.53119 40.1507 2.3948C40.0143 2.25841 39.8293 2.18179 39.6364 2.18179H23.6367C23.4438 2.18179 23.2588 2.25841 23.1224 2.3948C22.986 2.53119 22.9094 2.71617 22.9094 2.90905V13.0907C22.9094 13.2836 22.986 13.4686 23.1224 13.605C23.2588 13.7414 23.4438 13.818 23.6367 13.818H29.4548V15.325C29.0409 15.4159 28.6623 15.6252 28.3651 15.9272C28.0679 16.2293 27.8648 16.6111 27.7805 17.0264L27.404 18.9088H24.3639C23.7855 18.9095 23.2309 19.1396 22.8219 19.5486C22.4129 19.9576 22.1828 20.5122 22.1821 21.0906V26.2926C21.6778 26.0353 21.1477 25.8319 20.6006 25.6858L14.9095 24.1682V21.4434C16.3561 20.2432 17.3372 18.5747 17.6828 16.727H19.2943C19.8671 16.7264 20.4163 16.4986 20.8213 16.0935C21.2264 15.6885 21.4542 15.1393 21.4549 14.5665V11.6149C21.4549 11.3096 21.3901 11.0078 21.2647 10.7294C21.1394 10.4511 20.9563 10.2025 20.7276 10.0002V7.99989C20.7252 5.87892 19.8816 3.84551 18.3818 2.34576C16.8821 0.846008 14.8487 0.00239576 12.7277 0H9.81866C7.6977 0.00239576 5.66429 0.846008 4.16454 2.34576C2.66479 3.84551 1.82117 5.87892 1.81878 7.99989V10.0002C1.59011 10.2025 1.40702 10.451 1.28165 10.7294C1.15627 11.0078 1.09146 11.3096 1.09152 11.6149V14.5665C1.09216 15.1393 1.31999 15.6885 1.72501 16.0935C2.13004 16.4985 2.67919 16.7264 3.252 16.727H4.86361C5.20913 18.5747 6.19024 20.2432 7.63688 21.4434V24.1682L1.94573 25.6858C1.2645 25.8674 0.610264 26.1382 0 26.4911L0.728506 27.7501C1.22783 27.4613 1.76315 27.2397 2.32055 27.0912L8.45949 25.4542H14.0869L20.2258 27.0912C21.474 27.4219 22.5961 28.1152 23.4502 29.0835C24.3044 30.0518 24.8523 31.2516 25.0247 32.5312L25.8615 38.6673L20.0003 39.8396V33.4541H18.5458V43.6357H20.0003V41.3229L26.0584 40.1113L26.5524 43.734L27.9936 43.5375L27.8968 42.8279L29.4548 40.2962V43.6357H30.9093V34.9086H32.3638V43.6357H33.8183V40.2962L36.108 44.0169L37.3468 43.2546L33.8183 37.5209V34.9086H34.1392L39.7443 44.0169L40.9831 43.2546L35.2729 33.9754V31.9995H38.9092C39.4876 31.9989 40.0422 31.7688 40.4512 31.3598C40.8602 30.9508 41.0903 30.3962 41.091 29.8178V29.0905H43.2727C43.4656 29.0905 43.6506 29.0139 43.787 28.8775C43.9234 28.7411 44 28.5561 44 28.3632V7.99989C44 7.80701 43.9234 7.62202 43.787 7.48564C43.6506 7.34925 43.4656 7.27263 43.2727 7.27262ZM20.0003 11.6149V14.5665C20.0001 14.7537 19.9257 14.9331 19.7933 15.0655C19.6609 15.1979 19.4815 15.2723 19.2943 15.2725H17.8186V10.9089H19.2943C19.4815 10.9091 19.6609 10.9836 19.7933 11.1159C19.9257 11.2483 20.0001 11.4278 20.0003 11.6149ZM4.72783 15.2725H3.252C3.06482 15.2723 2.88538 15.1978 2.75303 15.0655C2.62068 14.9331 2.54624 14.7537 2.54604 14.5665V11.6149C2.54624 11.4278 2.62068 11.2483 2.75303 11.116C2.88538 10.9836 3.06482 10.9092 3.252 10.9089H4.72783V15.2725ZM4.72783 8.89884V9.45441H3.2733V7.99989C3.27526 6.26455 3.96548 4.60085 5.19255 3.37378C6.41962 2.14671 8.08333 1.45648 9.81866 1.45452H12.7277C14.4631 1.45648 16.1268 2.14671 17.3538 3.37378C18.5809 4.60085 19.2711 6.26455 19.2731 7.99989V9.45441H17.8186V8.89884C17.8168 7.3108 17.1851 5.78832 16.0622 4.66541C14.9393 3.54249 13.4168 2.91085 11.8288 2.90905H10.7176C9.12958 2.91085 7.6071 3.54249 6.48418 4.66541C5.36127 5.78832 4.72963 7.3108 4.72783 8.89884ZM13.455 23.9997H9.0914V21.8179H13.455V23.9997ZM13.9318 20.3633H8.61458C7.85698 19.7483 7.2457 18.9724 6.82503 18.0919C6.40435 17.2114 6.18483 16.2483 6.18235 15.2725V8.89884C6.18371 7.69643 6.66197 6.54366 7.5122 5.69342C8.36243 4.84319 9.51521 4.36493 10.7176 4.36357H11.8288C13.0312 4.36493 14.1839 4.84319 15.0342 5.69342C15.8844 6.54366 16.3627 7.69643 16.364 8.89884V15.2725C16.3616 16.2483 16.142 17.2114 15.7214 18.0919C15.3007 18.9724 14.6894 19.7483 13.9318 20.3633ZM24.3639 12.3635V3.63631H38.9092V12.3635H24.3639ZM32.3638 13.818V15.2725H30.9093V13.818H32.3638ZM26.4659 32.3347C26.4505 32.2222 26.4323 32.1106 26.4124 31.9995H28.0002V33.9754L26.9274 35.7188L26.4659 32.3347ZM29.4548 37.5209L27.587 40.556L27.2372 37.9908L29.1339 34.9086H29.4548V37.5209ZM33.8183 33.4541H29.4548V31.9995H33.8183V33.4541ZM39.6364 29.8178C39.6362 30.0106 39.5595 30.1954 39.4232 30.3318C39.2868 30.4681 39.102 30.5448 38.9092 30.545H26.0076C25.5154 29.2593 24.6985 28.123 23.6367 27.2469V21.0906C23.6369 20.8978 23.7136 20.7129 23.8499 20.5766C23.9862 20.4403 24.1711 20.3636 24.3639 20.3633H28.0002C28.1684 20.3634 28.3313 20.3051 28.4613 20.1985C28.5913 20.0919 28.6804 19.9436 28.7134 19.7787L29.2068 17.3116C29.2401 17.1469 29.3293 16.9988 29.4592 16.8923C29.5892 16.7858 29.7519 16.7274 29.9199 16.727H33.3531C33.5212 16.7274 33.6839 16.7858 33.8139 16.8923C33.9438 16.9988 34.033 17.147 34.0663 17.3117L34.5597 19.7787C34.5926 19.9433 34.6814 20.0914 34.8111 20.1979C34.9407 20.3045 35.1033 20.3629 35.2711 20.3633L38.9108 20.3721C39.1033 20.3729 39.2877 20.4498 39.4237 20.5861C39.5596 20.7223 39.6361 20.9069 39.6364 21.0994V29.8178ZM42.5455 27.636H41.091V21.0994C41.0901 20.6484 40.9499 20.2088 40.6896 19.8407C40.4292 19.4725 40.0613 19.1939 39.6364 19.0429V18.1816H38.1819V18.9158L35.8693 18.9102L35.4926 17.0265C35.4083 16.6112 35.2052 16.2293 34.908 15.9272C34.6108 15.6252 34.2322 15.4159 33.8183 15.325V13.818H39.6364C39.8293 13.818 40.0143 13.7414 40.1507 13.605C40.2871 13.4686 40.3637 13.2836 40.3637 13.0907V8.72715H42.5455V27.636Z" fill="white"/>
<path d="M35.0598 4.57657L34.0312 5.6051L36.9403 8.51415L37.9688 7.48562L35.0598 4.57657Z" fill="white"/>
<path d="M31.4235 4.57657L30.395 5.6051L36.2131 11.4232L37.2416 10.3947L31.4235 4.57657Z" fill="white"/>
<path d="M33.0912 18.1816H30.1821V19.6361H33.0912V18.1816Z" fill="white"/>
<path d="M34.5455 21.8179H25.8183C25.6254 21.8179 25.4405 21.8945 25.3041 22.0309C25.1677 22.1673 25.0911 22.3523 25.0911 22.5451V28.3632C25.0911 28.5561 25.1677 28.7411 25.3041 28.8775C25.4405 29.0139 25.6254 29.0905 25.8183 29.0905H34.5455C34.7384 29.0905 34.9233 29.0139 35.0597 28.8775C35.1961 28.7411 35.2727 28.5561 35.2727 28.3632V22.5451C35.2727 22.3523 35.1961 22.1673 35.0597 22.0309C34.9233 21.8945 34.7384 21.8179 34.5455 21.8179ZM33.8182 27.636H26.5456V23.2724H33.8182V27.636Z" fill="white"/>
<path d="M38.1818 21.8179H36.7273V23.2724H38.1818V21.8179Z" fill="white"/>
<path d="M38.1818 24.7269H36.7273V26.1815H38.1818V24.7269Z" fill="white"/>
<path d="M38.1818 27.636H36.7273V29.0905H38.1818V27.636Z" fill="white"/>
<path d="M2.5461 39.8395L0.506948 39.4317L0.22168 40.8581L2.5461 41.323V43.6357H4.00063V33.4541H2.5461V39.8395Z" fill="white"/>
</svg>
