<svg width="45" height="45" viewBox="0 0 45 45" fill="none" xmlns="http://www.w3.org/2000/svg">
<path d="M40.9516 18.6416H35.9839V3.73839C35.9839 1.78193 34.3919 0.190002 32.4355 0.190002H12.5645C10.6081 0.190002 9.01613 1.78193 9.01613 3.73839V18.6416H4.04839C2.09192 18.6416 0.5 20.2335 0.5 22.19V40.6416C0.5 42.5981 2.09192 44.19 4.04839 44.19H13.9839C15.9403 44.19 17.5323 42.5981 17.5323 40.6416V39.9319H27.4677V40.6416C27.4677 42.5981 29.0597 44.19 31.0161 44.19H40.9516C42.9081 44.19 44.5 42.5981 44.5 40.6416V22.19C44.5 20.2335 42.9081 18.6416 40.9516 18.6416ZM16.1129 40.6416C16.1129 41.8153 15.1575 42.7706 13.9839 42.7706H4.04839C2.87472 42.7706 1.91935 41.8153 1.91935 40.6416V22.19C1.91935 21.0163 2.87472 20.061 4.04839 20.061H13.9839C15.1575 20.061 16.1129 21.0163 16.1129 22.19V40.6416ZM27.4677 22.19V38.5126H17.5323V22.19C17.5323 20.2335 15.9403 18.6416 13.9839 18.6416H10.4355V3.73839C10.4355 2.56472 11.3908 1.60936 12.5645 1.60936H32.4355C33.6092 1.60936 34.5645 2.56472 34.5645 3.73839V18.6416H31.0161C29.0597 18.6416 27.4677 20.2335 27.4677 22.19ZM43.0806 40.6416C43.0806 41.8153 42.1253 42.7706 40.9516 42.7706H31.0161C29.8425 42.7706 28.8871 41.8153 28.8871 40.6416V22.19C28.8871 21.0163 29.8425 20.061 31.0161 20.061H40.9516C42.1253 20.061 43.0806 21.0163 43.0806 22.19V40.6416Z" fill="white"/>
<path d="M9.01604 29.9965C5.88556 29.9965 3.33862 32.5434 3.33862 35.6739C3.33862 38.8044 5.88556 41.3513 9.01604 41.3513C12.1465 41.3513 14.6935 38.8044 14.6935 35.6739C14.6935 32.5434 12.1465 29.9965 9.01604 29.9965ZM9.01604 39.9319C6.66766 39.9319 4.75798 38.0223 4.75798 35.6739C4.75798 33.3255 6.66766 31.4158 9.01604 31.4158C11.3644 31.4158 13.2741 33.3255 13.2741 35.6739C13.2741 38.0223 11.3644 39.9319 9.01604 39.9319Z" fill="white"/>
<path d="M9.0162 32.8352C7.45061 32.8352 6.17749 34.1083 6.17749 35.6739C6.17749 37.2395 7.45061 38.5126 9.0162 38.5126C10.5818 38.5126 11.8549 37.2395 11.8549 35.6739C11.8549 34.1083 10.5818 32.8352 9.0162 32.8352ZM9.0162 37.0932C8.23341 37.0932 7.59685 36.4567 7.59685 35.6739C7.59685 34.8911 8.23341 34.2545 9.0162 34.2545C9.79899 34.2545 10.4356 34.8911 10.4356 35.6739C10.4356 36.4567 9.79899 37.0932 9.0162 37.0932Z" fill="white"/>
<path d="M9.01616 28.5771C10.9726 28.5771 12.5645 26.9852 12.5645 25.0287C12.5645 23.0722 10.9726 21.4803 9.01616 21.4803C7.0597 21.4803 5.46777 23.0722 5.46777 25.0287C5.46777 26.9852 7.0597 28.5771 9.01616 28.5771ZM9.01616 22.8997C10.1898 22.8997 11.1452 23.855 11.1452 25.0287C11.1452 26.2024 10.1898 27.1577 9.01616 27.1577C7.84249 27.1577 6.88713 26.2024 6.88713 25.0287C6.88713 23.855 7.84249 22.8997 9.01616 22.8997Z" fill="white"/>
<path d="M35.9838 29.9965C32.8533 29.9965 30.3064 32.5434 30.3064 35.6739C30.3064 38.8044 32.8533 41.3513 35.9838 41.3513C39.1143 41.3513 41.6612 38.8044 41.6612 35.6739C41.6612 32.5434 39.1143 29.9965 35.9838 29.9965ZM35.9838 39.9319C33.6354 39.9319 31.7258 38.0223 31.7258 35.6739C31.7258 33.3255 33.6354 31.4158 35.9838 31.4158C38.3322 31.4158 40.2419 33.3255 40.2419 35.6739C40.2419 38.0223 38.3322 39.9319 35.9838 39.9319Z" fill="white"/>
<path d="M35.984 32.8352C34.4184 32.8352 33.1453 34.1083 33.1453 35.6739C33.1453 37.2395 34.4184 38.5126 35.984 38.5126C37.5496 38.5126 38.8227 37.2395 38.8227 35.6739C38.8227 34.1083 37.5496 32.8352 35.984 32.8352ZM35.984 37.0932C35.2012 37.0932 34.5646 36.4567 34.5646 35.6739C34.5646 34.8911 35.2012 34.2545 35.984 34.2545C36.7668 34.2545 37.4033 34.8911 37.4033 35.6739C37.4033 36.4567 36.7668 37.0932 35.984 37.0932Z" fill="white"/>
<path d="M35.9839 28.5771C37.9404 28.5771 39.5323 26.9852 39.5323 25.0287C39.5323 23.0722 37.9404 21.4803 35.9839 21.4803C34.0275 21.4803 32.4355 23.0722 32.4355 25.0287C32.4355 26.9852 34.0275 28.5771 35.9839 28.5771ZM35.9839 22.8997C37.1576 22.8997 38.113 23.855 38.113 25.0287C38.113 26.2024 37.1576 27.1577 35.9839 27.1577C34.8103 27.1577 33.8549 26.2024 33.8549 25.0287C33.8549 23.855 34.8103 22.8997 35.9839 22.8997Z" fill="white"/>
<path d="M33.1451 3.02872H11.8547V10.1255H33.1451V3.02872ZM31.7257 8.70614H13.2741V4.44807H31.7257V8.70614Z" fill="white"/>
<path d="M22.5 11.5448C20.1516 11.5448 18.2419 13.4545 18.2419 15.8029C18.2419 18.1513 20.1516 20.061 22.5 20.061C24.8484 20.061 26.7581 18.1513 26.7581 15.8029C26.7581 13.4545 24.8484 11.5448 22.5 11.5448ZM23.2097 18.5408V15.8029H21.7903V18.5408C20.5688 18.2237 19.6613 17.1221 19.6613 15.8029C19.6613 14.2373 20.9344 12.9642 22.5 12.9642C24.0656 12.9642 25.3387 14.2373 25.3387 15.8029C25.3387 17.1221 24.4312 18.2237 23.2097 18.5408Z" fill="white"/>
<path d="M18.9517 21.4803H26.0484V22.8997H18.9517V21.4803Z" fill="white"/>
<path d="M18.9517 24.319H26.0484V25.7384H18.9517V24.319Z" fill="white"/>
<path d="M22.5 29.9965C20.5436 29.9965 18.9517 31.5884 18.9517 33.5448C18.9517 35.5013 20.5436 37.0932 22.5 37.0932C24.4565 37.0932 26.0484 35.5013 26.0484 33.5448C26.0484 31.5884 24.4565 29.9965 22.5 29.9965ZM22.5 35.6739C21.3264 35.6739 20.371 34.7185 20.371 33.5448C20.371 32.3712 21.3264 31.4158 22.5 31.4158C23.6737 31.4158 24.6291 32.3712 24.6291 33.5448C24.6291 34.7185 23.6737 35.6739 22.5 35.6739Z" fill="white"/>
<path d="M18.9517 27.1577H26.0484V28.5771H18.9517V27.1577Z" fill="white"/>
</svg>
