<svg width="44" height="44" viewBox="0 0 44 44" fill="none" xmlns="http://www.w3.org/2000/svg">
<path d="M43.3568 24.4126H0.642848C0.287687 24.4126 0 24.7002 0 25.0551C0 25.4102 0.287687 25.6979 0.642848 25.6979H43.3568C43.712 25.6979 43.9997 25.4102 43.9997 25.0551C43.9997 24.7002 43.712 24.4126 43.3568 24.4126Z" fill="white"/>
<path d="M0 20.0553C0 20.4101 0.287687 20.6978 0.642848 20.6978H43.3568C43.7116 20.6978 43.9997 20.4101 43.9997 20.0553C43.9997 19.7001 43.7116 19.4124 43.3568 19.4124H40.9972L43.9731 6.23994C44.0624 5.84449 43.9161 5.42488 43.5999 5.1711L37.3661 0.166954C37.2066 0.039056 37.0072 -0.0183471 36.8045 0.00515128C36.6017 0.0283139 36.4204 0.129693 36.2949 0.289817L33.695 3.5957L31.3048 2.24589C31.0709 2.11396 30.7812 2.11597 30.5489 2.25126C30.3169 2.38688 30.1726 2.63797 30.1726 2.90686V5.19594H13.8271V2.90686C13.8271 2.63797 13.6828 2.38688 13.4508 2.25126C13.2188 2.11597 12.9291 2.11363 12.6952 2.24589L10.3047 3.5957L7.70511 0.290153C7.57889 0.129693 7.39795 0.0283139 7.1952 0.00515128C6.99244 -0.0183471 6.79304 0.039056 6.63325 0.16729L0.399472 5.17143C0.083587 5.42521 -0.0631099 5.84449 0.0261839 6.23994L3.00208 19.4124H0.642848C0.287687 19.4124 0 19.7001 0 20.0553H0ZM31.4583 3.8092L37.3198 7.11911L36.5624 15.0605C36.5285 15.414 36.7877 15.7279 37.1412 15.7615C37.162 15.7635 37.1825 15.7645 37.2029 15.7645C37.5306 15.7645 37.8105 15.5154 37.8421 15.1827L38.6128 7.10098C38.6531 6.68171 38.442 6.27653 38.0747 6.06907L34.8276 4.23553L36.9763 1.50267L42.6895 6.08888L39.6797 19.4124H37.4386L37.5883 17.8428C37.6219 17.4893 37.3627 17.1754 37.0096 17.1418C36.6568 17.1079 36.3422 17.3671 36.3087 17.7206L36.1472 19.4124H33.0229V6.27955C33.0229 5.68202 32.5368 5.19627 31.9396 5.19627H31.4583V3.8092ZM12.5414 5.19594H12.0305C11.433 5.19594 10.9472 5.68202 10.9472 6.27955V8.09228C10.9472 8.44744 11.2349 8.73513 11.5901 8.73513C11.9449 8.73513 12.2329 8.44744 12.2329 8.09228V6.48163H31.7372V19.4124H12.2329V10.7922C12.2329 10.4371 11.9449 10.1494 11.5901 10.1494C11.2349 10.1494 10.9472 10.4371 10.9472 10.7922V19.4124H7.85248L6.67991 7.11911L12.5414 3.8092V5.19594ZM1.3102 6.08888L7.02332 1.50267L9.17208 4.23553L5.92494 6.06907C5.55803 6.27653 5.34655 6.68137 5.38649 7.10098L6.56108 19.4124H4.32L1.3102 6.08888Z" fill="white"/>
<path d="M17.7285 39.9174C17.3734 39.9174 17.0857 40.2051 17.0857 40.56V42.9743C17.0857 43.3291 17.3734 43.6171 17.7285 43.6171C18.0834 43.6171 18.3714 43.3294 18.3714 42.9743V40.56C18.3714 40.2051 18.0834 39.9174 17.7285 39.9174Z" fill="white"/>
<path d="M41.6763 35.2735C41.6925 35.157 41.7012 35.0389 41.7012 34.9204C41.7012 33.7428 40.9224 32.7588 39.8411 32.4574V31.6397C39.8411 30.3177 38.8153 29.2321 37.5181 29.1354C37.5343 29.0189 37.5427 28.9008 37.5427 28.7823C37.5427 27.3717 36.3946 26.224 34.9837 26.224C33.5731 26.224 32.4254 27.3713 32.4254 28.7823C32.4254 28.8987 32.4331 29.0149 32.4489 29.1297C31.7379 29.1508 31.1001 29.4684 30.6556 29.9635C30.2347 29.4946 29.6405 29.1851 28.9748 29.1354C28.9913 29.0189 28.9997 28.9008 28.9997 28.7823C28.9997 27.3717 27.8519 26.224 26.4414 26.224C25.0301 26.224 23.8821 27.3713 23.8821 28.7823C23.8821 28.8987 23.8901 29.0149 23.9059 29.1297C23.1949 29.1508 22.5574 29.4684 22.113 29.9635C21.6923 29.4949 21.0982 29.1854 20.4328 29.1354C20.4489 29.0189 20.4573 28.9008 20.4573 28.7823C20.4573 27.3717 19.3093 26.224 17.8984 26.224C16.4871 26.224 15.3391 27.3717 15.3391 28.7823C15.3391 28.8991 15.3471 29.0149 15.3629 29.1297C14.6519 29.1508 14.0144 29.4684 13.5703 29.9635C13.1493 29.4946 12.5552 29.1851 11.8898 29.1354C11.9059 29.0189 11.9143 28.9008 11.9143 28.7823C11.9143 27.3717 10.7663 26.224 9.35537 26.224C7.94412 26.224 6.79606 27.3717 6.79606 28.7823C6.79606 28.8991 6.80412 29.0149 6.81989 29.1297C5.47008 29.17 4.38446 30.2801 4.38446 31.6397V32.4299C3.25519 32.6957 2.4116 33.7112 2.4116 34.9204C2.4116 35.0368 2.41932 35.153 2.4351 35.2675C1.08562 35.3081 0 36.4175 0 37.7771V42.9739C0 43.3291 0.287687 43.6168 0.642848 43.6168C0.997673 43.6168 1.2857 43.3291 1.2857 42.9739V37.7771C1.2857 37.101 1.83556 36.5511 2.51164 36.5511H3.32267C3.32502 36.5511 3.32737 36.5515 3.32938 36.5515C3.3314 36.5515 3.33375 36.5511 3.33576 36.5511H7.31705C7.99313 36.5511 8.543 37.101 8.543 37.7771V42.9739C8.543 43.3291 8.83068 43.6168 9.18584 43.6168C9.54067 43.6168 9.82836 43.3291 9.82836 42.9739V37.7771C9.82836 37.101 10.3786 36.5511 11.0543 36.5511H15.1491C15.1511 36.5511 15.1534 36.5515 15.1554 36.5515C15.1578 36.5515 15.1598 36.5511 15.1621 36.5511H15.86C16.5358 36.5511 17.0857 37.101 17.0857 37.7771C17.0857 38.0876 17.3062 38.3468 17.5989 38.4068C17.6409 38.4152 17.6845 38.4199 17.7288 38.4199C18.084 38.4199 18.3717 38.1322 18.3717 37.7771C18.3717 37.1013 18.9215 36.5515 19.5973 36.5515H20.4137H20.415H23.6981H23.6994H24.4027C25.0785 36.5515 25.6283 37.1013 25.6283 37.7771V42.9739C25.6283 43.3291 25.916 43.6168 26.2712 43.6168C26.6263 43.6168 26.914 43.3291 26.914 42.9739V37.7771C26.914 37.1013 27.4642 36.5515 28.1403 36.5515H28.9567H28.958H32.2414H32.2424H32.9457C33.6214 36.5515 34.1713 37.1013 34.1713 37.7771V42.9739C34.1713 43.3291 34.459 43.6168 34.8142 43.6168C35.169 43.6168 35.457 43.3291 35.457 42.9739V37.7771C35.457 37.1013 36.0072 36.5515 36.6833 36.5515H37.499H37.5H40.7844H40.7858H41.4887C42.1644 36.5515 42.7143 37.1013 42.7143 37.7771V42.9739C42.7143 43.3291 43.0023 43.6168 43.3572 43.6168C43.7123 43.6168 44 43.3291 44 42.9739V37.7771C43.9997 36.4555 42.9735 35.3702 41.6763 35.2735V35.2735ZM40.4155 34.9204C40.4155 35.0379 40.3994 35.154 40.3678 35.2658H37.9159C37.8847 35.154 37.8683 35.0379 37.8683 34.9204C37.8683 34.2181 38.4396 33.6471 39.1419 33.6471H39.1526C39.162 33.6478 39.1711 33.6481 39.1805 33.6484C39.873 33.6679 40.4155 34.2268 40.4155 34.9204V34.9204ZM34.9837 27.5096C35.6859 27.5096 36.2573 28.0807 36.2573 28.7823C36.2573 28.8997 36.2408 29.0159 36.2093 29.1277H33.7587C33.7272 29.0159 33.7107 28.8997 33.7107 28.7823C33.7107 28.0807 34.2818 27.5096 34.9837 27.5096ZM31.8248 35.2658H29.374C29.3424 35.154 29.3263 35.0379 29.3263 34.9204C29.3263 34.2181 29.8973 33.6471 30.5989 33.6471H30.6096C30.619 33.6478 30.6281 33.6481 30.6375 33.6484C31.33 33.6679 31.8725 34.2268 31.8725 34.9207C31.8725 35.0379 31.8564 35.154 31.8248 35.2658V35.2658ZM26.4414 27.5096C27.1433 27.5096 27.714 28.0807 27.714 28.7823C27.714 28.8997 27.6978 29.0159 27.6663 29.1277H25.2158C25.1842 29.0159 25.1677 28.8997 25.1677 28.7823C25.1677 28.0807 25.7391 27.5096 26.4414 27.5096V27.5096ZM23.2818 35.2658H20.831C20.7994 35.154 20.7833 35.0379 20.7833 34.9204C20.7833 34.2181 21.3546 33.6471 22.0569 33.6471H22.0676C22.0767 33.6478 22.0861 33.6481 22.0952 33.6484C22.7874 33.6679 23.3295 34.2268 23.3295 34.9207C23.3295 35.0379 23.3134 35.154 23.2818 35.2658V35.2658ZM17.8984 27.5096C18.6006 27.5096 19.172 28.0807 19.172 28.7823C19.172 28.8997 19.1559 29.0159 19.1243 29.1277H16.6728C16.6412 29.0159 16.6248 28.8997 16.6248 28.7823C16.6248 28.0807 17.1961 27.5096 17.8984 27.5096ZM14.7398 35.2654H12.288C12.2564 35.1537 12.2403 35.0379 12.2403 34.9204C12.2403 34.2181 12.8116 33.6471 13.5139 33.6471H13.5233C13.533 33.6478 13.5428 33.6481 13.5522 33.6484C14.2447 33.6679 14.7872 34.2268 14.7872 34.9207C14.7875 35.0379 14.7711 35.1537 14.7398 35.2654ZM9.35537 27.5096C10.0576 27.5096 10.629 28.0807 10.629 28.7823C10.629 28.8997 10.6125 29.0159 10.5813 29.1277H8.12976C8.0982 29.0159 8.08209 28.8997 8.08209 28.7823C8.08209 28.0807 8.6531 27.5096 9.35537 27.5096ZM4.97091 33.6471H4.98031C4.99004 33.6478 4.99978 33.6481 5.00918 33.6484C5.70171 33.6679 6.24452 34.2268 6.24452 34.9207C6.24452 35.0379 6.22807 35.154 6.19685 35.2654H3.74497C3.71341 35.154 3.6973 35.0379 3.6973 34.9207C3.6973 34.2181 4.26864 33.6471 4.97091 33.6471ZM9.18551 36.1013C8.76489 35.6324 8.17071 35.3229 7.50537 35.2732C7.52149 35.1567 7.52988 35.0389 7.52988 34.9204C7.52988 33.7428 6.75141 32.7588 5.67015 32.4574V31.6397C5.67015 30.9636 6.22001 30.4134 6.89576 30.4134H10.9956H10.9969H10.9982H11.7022C12.3779 30.4134 12.9278 30.9636 12.9278 31.6397V32.4299C11.7982 32.6957 10.9546 33.7112 10.9546 34.9207C10.9546 35.0372 10.9627 35.153 10.9784 35.2675C10.2674 35.2886 9.62996 35.6062 9.18551 36.1013ZM17.7288 36.1013C17.3079 35.6327 16.7137 35.3229 16.0484 35.2732C16.0645 35.1567 16.0729 35.0389 16.0729 34.9204C16.0729 33.7424 15.2944 32.7585 14.2131 32.4574V31.6397C14.2131 30.9636 14.763 30.4134 15.4388 30.4134H19.5385H19.5399H19.5412H20.2442C20.9203 30.4134 21.4704 30.9636 21.4704 31.6397V32.4299C20.3412 32.6957 19.4976 33.7112 19.4976 34.9204C19.4976 35.0372 19.5056 35.153 19.5211 35.2678C18.8104 35.2889 18.173 35.6065 17.7288 36.1013ZM26.2708 36.1013C25.8502 35.6327 25.256 35.3232 24.5904 35.2735C24.6068 35.157 24.6152 35.0389 24.6152 34.9204C24.6152 33.7428 23.8371 32.7588 22.7561 32.4574V31.6397C22.7561 30.9636 23.306 30.4134 23.9818 30.4134H28.0809H28.0819H28.0832H28.7872C29.4629 30.4134 30.0128 30.9636 30.0128 31.6397V32.4299C28.8838 32.6957 28.0406 33.7112 28.0406 34.9204C28.0406 35.0372 28.0486 35.153 28.0644 35.2678C27.3534 35.2889 26.7153 35.6065 26.2708 36.1013V36.1013ZM34.8138 36.1013C34.3932 35.6327 33.799 35.3232 33.1334 35.2735C33.1495 35.157 33.1582 35.0389 33.1582 34.9204C33.1582 33.7428 32.3794 32.7588 31.2981 32.4574V31.6397C31.2981 30.9632 31.8483 30.4134 32.5247 30.4134H33.3415H33.3428H33.3442H37.3302C38.0059 30.4134 38.5558 30.9632 38.5558 31.6397V32.4299C37.4262 32.6957 36.5826 33.7112 36.5826 34.9204C36.5826 35.0372 36.5906 35.153 36.6064 35.2678C35.8958 35.2893 35.2583 35.6068 34.8138 36.1013Z" fill="white"/>
</svg>
