<svg width="44" height="40" viewBox="0 0 44 40" fill="none" xmlns="http://www.w3.org/2000/svg">
<path d="M8.84169 1.88138C7.14402 -0.265036 4.02779 -0.628757 1.88138 1.06892C-0.265036 2.7666 -0.628757 5.88283 1.06892 8.02924C1.20744 8.20283 1.4094 8.31433 1.6301 8.33914H1.72224C1.91122 8.3381 2.09412 8.27308 2.24154 8.15488L8.69931 3.04562C9.05591 2.76105 9.11914 2.24353 8.84169 1.88138ZM1.97351 6.26194C1.38176 4.90275 1.77689 3.31553 2.93673 2.3923C4.09982 1.46552 5.74222 1.44144 6.932 2.33367L1.97351 6.26194Z" fill="white"/>
<path d="M12.636 22.0923L5.91863 7.73609C5.722 7.31751 5.22333 7.13753 4.80464 7.33405C4.39244 7.53685 4.22053 8.03385 4.41935 8.44803L11.12 22.8042C11.3245 23.2191 11.8266 23.3898 12.2415 23.1854C12.6455 22.9864 12.8198 22.5034 12.636 22.0923Z" fill="white"/>
<path d="M19.2947 16.2208L8.20509 5.1982C7.87843 4.87343 7.35075 4.87343 7.0241 5.1982C6.69932 5.52486 6.69932 6.05254 7.0241 6.37919L18.1137 17.4102C18.4421 17.7363 18.9727 17.7344 19.2989 17.406C19.625 17.0775 19.6231 16.5469 19.2947 16.2208Z" fill="white"/>
<path d="M42.1531 1.1196C42.1389 1.10819 42.1247 1.09688 42.1104 1.08568C39.9646 -0.600799 36.8579 -0.228388 35.1715 1.9175C35.1699 1.91939 35.1684 1.92137 35.1669 1.92326C34.8818 2.28457 34.9417 2.80817 35.3009 3.09588L41.7335 8.20514C41.8808 8.32334 42.0639 8.38836 42.2528 8.3894H42.345C42.5658 8.36459 42.7676 8.25309 42.9061 8.0795C44.6201 5.94963 44.2829 2.83361 42.1531 1.1196ZM42.0434 6.26194H42.0351L37.0849 2.33368C38.2822 1.47421 39.9004 1.49798 41.0718 2.39231C42.2346 3.31333 42.6333 4.90087 42.0434 6.26194Z" fill="white"/>
<path d="M39.2166 7.32651C38.8015 7.12214 38.2995 7.2928 38.095 7.70771C38.0904 7.71703 38.086 7.72656 38.0817 7.73598L31.3559 22.0922C31.1594 22.5109 31.3394 23.0095 31.758 23.2061C32.1712 23.4141 32.6747 23.2476 32.8827 22.8344C32.8877 22.8244 32.8925 22.8143 32.8971 22.8041L39.5978 8.44793C39.8022 8.03312 39.6316 7.53098 39.2166 7.32651Z" fill="white"/>
<path d="M25.317 17.6531C25.3156 17.6531 25.3142 17.6529 25.3129 17.6529C25.3114 17.6529 25.3101 17.6531 25.3086 17.6531H25.317Z" fill="white"/>
<path d="M36.9972 5.21076C36.671 4.88232 36.1404 4.88044 35.812 5.20657L24.7224 16.2208C24.3939 16.5465 24.3917 17.0769 24.7175 17.4053C24.8749 17.5642 25.0894 17.6532 25.313 17.653C25.5341 17.6531 25.7463 17.5661 25.9034 17.4103L36.993 6.39604C37.3213 6.06981 37.3232 5.5392 36.9972 5.21076Z" fill="white"/>
<path d="M39.4639 37.9058H35.7785V35.3931C35.7785 34.9305 35.4035 34.5555 34.9409 34.5555H9.07635C8.6138 34.5555 8.23877 34.9305 8.23877 35.3931V37.9058H4.5534C4.09085 37.9058 3.71582 38.2809 3.71582 38.7434C3.71582 39.206 4.09085 39.581 4.5534 39.581H39.4639C39.9264 39.581 40.3015 39.206 40.3015 38.7434C40.3015 38.2809 39.9264 37.9058 39.4639 37.9058ZM34.1034 37.9058H9.91394V36.2307H34.1034V37.9058Z" fill="white"/>
</svg>
