<svg width="45" height="33" viewBox="0 0 45 33" fill="none" xmlns="http://www.w3.org/2000/svg">
<path d="M44.4793 4.41704C44.4522 4.30506 44.399 4.20107 44.3241 4.11347C44.2493 4.02588 44.1549 3.95715 44.0485 3.91287L37.9564 1.37462C36.0802 0.590624 34.0667 0.18793 32.0334 0.19001H23.4979C20.6379 0.190006 17.8345 0.986408 15.4016 2.48998C12.9688 3.99355 11.0027 6.14488 9.72369 8.70292L9.37746 9.39537H9.37811C9.37169 9.4082 9.365 9.42076 9.35922 9.43414L5.1497 19.2567H4.16667C3.19454 19.2578 2.26255 19.6444 1.57515 20.3318C0.887751 21.0192 0.501092 21.9512 0.5 22.9234C0.499994 22.9637 0.503305 23.0041 0.5099 23.0439L1.97657 31.8439C2.0051 32.0152 2.09347 32.1707 2.22594 32.2829C2.35841 32.3951 2.52639 32.4567 2.7 32.4567H39.3667C39.5362 32.4567 39.7005 32.398 39.8316 32.2905C39.9627 32.183 40.0526 32.0334 40.0858 31.8672L41.5276 24.6583L41.5722 24.5841C43.0082 22.1906 43.7668 19.4519 43.7667 16.6607V13.368C43.7641 11.3842 43.1443 9.45028 41.9933 7.83447L44.3276 5.06237C44.4018 4.97428 44.4542 4.86994 44.4805 4.75783C44.5069 4.64571 44.5065 4.52896 44.4793 4.41704ZM23.4979 1.65668H32.0334C33.8731 1.6548 35.6948 2.01913 37.3923 2.72845L39.091 3.4363L32.4985 15.4226C32.1931 14.512 31.6383 13.7054 30.8971 13.0946C30.1559 12.4837 29.2581 12.0933 28.3059 11.9675C27.3537 11.8418 26.3853 11.9859 25.511 12.3834C24.6366 12.781 23.8914 13.4159 23.3602 14.2161C22.908 13.5309 22.2386 13.0176 21.4595 12.7586L11.0686 9.29536C12.225 6.99217 14.0008 5.05714 16.1965 3.70774C18.3922 2.35833 20.9207 1.64804 23.4979 1.65668V1.65668ZM31.3 17.0567C31.3 17.7819 31.085 18.4908 30.6821 19.0938C30.2792 19.6968 29.7065 20.1667 29.0365 20.4442C28.3665 20.7218 27.6293 20.7944 26.918 20.6529C26.2068 20.5114 25.5534 20.1622 25.0406 19.6494C24.5278 19.1366 24.1786 18.4833 24.0371 17.772C23.8957 17.0608 23.9683 16.3235 24.2458 15.6535C24.5233 14.9835 24.9933 14.4109 25.5963 14.008C26.1992 13.6051 26.9082 13.39 27.6334 13.39C28.6055 13.3911 29.5375 13.7778 30.2249 14.4652C30.9123 15.1526 31.2989 16.0846 31.3 17.0567V17.0567ZM22.5 16.2376V18.3292C22.4989 18.7089 22.4001 19.0819 22.213 19.4123C22.026 19.7427 21.7569 20.0194 21.4319 20.2156L17.0411 22.8503L19.353 13.6028L20.9959 14.1505C21.4342 14.2962 21.8153 14.5763 22.0853 14.9509C22.3553 15.3256 22.5004 15.7758 22.5 16.2376V16.2376ZM10.4415 10.6324L17.9572 13.1377L15.3275 23.6567H6.9879L6.39206 20.0817L10.4415 10.6324ZM3.32123 30.99L3.07684 29.5234H7.1C7.2945 29.5234 7.48102 29.4461 7.61855 29.3086C7.75608 29.171 7.83334 28.9845 7.83334 28.79C7.83334 28.5955 7.75608 28.409 7.61855 28.2715C7.48102 28.134 7.2945 28.0567 7.1 28.0567H2.83237L1.9674 22.867C1.98279 22.2937 2.22117 21.749 2.63186 21.3487C3.04255 20.9484 3.59317 20.7241 4.16667 20.7234H5.01202L5.64324 24.5106C5.67177 24.6818 5.76014 24.8374 5.89261 24.9496C6.02508 25.0618 6.19306 25.1234 6.36667 25.1234H15.9C16.0329 25.1233 16.1633 25.0872 16.2773 25.0189L22.1865 21.4734C22.7387 21.1404 23.1934 20.6678 23.5048 20.1031C23.9455 20.7019 24.5111 21.1975 25.1625 21.5558C25.814 21.914 26.5355 22.1262 27.2771 22.1777C28.0188 22.2292 28.7627 22.1188 29.4574 21.854C30.1521 21.5892 30.7808 21.1765 31.3 20.6444V24.39C31.3 24.5845 31.3773 24.771 31.5148 24.9086C31.6523 25.0461 31.8389 25.1234 32.0334 25.1234H39.9388L39.3521 28.0567H10.0333C9.83885 28.0567 9.65232 28.134 9.51479 28.2715C9.37727 28.409 9.30001 28.5955 9.30001 28.79C9.30001 28.9845 9.37727 29.171 9.51479 29.3086C9.65232 29.4461 9.83885 29.5234 10.0333 29.5234H39.0588L38.7655 30.99H3.32123ZM42.3 13.368V16.6607C42.2994 19.1182 41.6489 21.5318 40.4143 23.6567H32.7667V18.791L41.0122 8.99918C41.851 10.3021 42.298 11.8185 42.3 13.368V13.368ZM35.0885 13.7567L40.4528 4.00335L42.5617 4.88197L35.0885 13.7567Z" fill="white"/>
<path d="M27.6334 14.8567C27.1982 14.8567 26.7729 14.9857 26.4111 15.2275C26.0493 15.4692 25.7673 15.8128 25.6008 16.2148C25.4343 16.6168 25.3907 17.0591 25.4756 17.4859C25.5605 17.9126 25.77 18.3046 26.0777 18.6123C26.3854 18.92 26.7774 19.1295 27.2042 19.2144C27.6309 19.2993 28.0733 19.2557 28.4753 19.0892C28.8773 18.9227 29.2208 18.6407 29.4626 18.2789C29.7043 17.9172 29.8334 17.4918 29.8334 17.0567C29.8327 16.4734 29.6007 15.9142 29.1882 15.5018C28.7758 15.0894 28.2166 14.8574 27.6334 14.8567V14.8567ZM27.6334 17.79C27.4883 17.79 27.3465 17.747 27.2259 17.6664C27.1053 17.5859 27.0113 17.4713 26.9558 17.3373C26.9003 17.2033 26.8858 17.0559 26.9141 16.9136C26.9424 16.7714 27.0122 16.6407 27.1148 16.5381C27.2174 16.4356 27.348 16.3657 27.4903 16.3374C27.6325 16.3092 27.78 16.3237 27.914 16.3792C28.048 16.4347 28.1625 16.5287 28.2431 16.6493C28.3237 16.7699 28.3667 16.9117 28.3667 17.0567C28.3665 17.2511 28.2891 17.4375 28.1517 17.575C28.0142 17.7125 27.8278 17.7898 27.6334 17.79V17.79Z" fill="white"/>
<path d="M10.0334 18.5233C10.1297 18.5235 10.2251 18.5046 10.3141 18.4677C10.4031 18.4309 10.4839 18.3768 10.552 18.3086L12.0186 16.8419C12.1562 16.7044 12.2334 16.5178 12.2334 16.3233C12.2334 16.1289 12.1562 15.9423 12.0186 15.8048C11.8811 15.6673 11.6946 15.59 11.5001 15.59C11.3056 15.59 11.119 15.6673 10.9815 15.8048L9.51485 17.2715C9.41229 17.374 9.34244 17.5047 9.31414 17.6469C9.28584 17.7892 9.30037 17.9367 9.35587 18.0707C9.41138 18.2047 9.50538 18.3192 9.62598 18.3998C9.74658 18.4803 9.88837 18.5234 10.0334 18.5233V18.5233Z" fill="white"/>
<path d="M10.248 21.9752C10.3161 22.0433 10.3969 22.0974 10.4859 22.1342C10.5749 22.1711 10.6703 22.1901 10.7666 22.1901C10.8629 22.1901 10.9582 22.1711 11.0472 22.1342C11.1362 22.0974 11.217 22.0433 11.2851 21.9752L15.6851 17.5752C15.7532 17.5071 15.8072 17.4263 15.8441 17.3373C15.8809 17.2484 15.8999 17.153 15.8999 17.0567C15.8999 16.9604 15.8809 16.865 15.8441 16.776C15.8072 16.6871 15.7532 16.6062 15.6851 16.5381C15.617 16.47 15.5362 16.416 15.4472 16.3792C15.3582 16.3423 15.2629 16.3233 15.1666 16.3233C15.0703 16.3233 14.9749 16.3423 14.8859 16.3792C14.7969 16.416 14.7161 16.47 14.648 16.5381L10.248 20.9381C10.1799 21.0062 10.1259 21.0871 10.089 21.176C10.0522 21.265 10.0332 21.3604 10.0332 21.4567C10.0332 21.553 10.0522 21.6484 10.089 21.7373C10.1259 21.8263 10.1799 21.9072 10.248 21.9752Z" fill="white"/>
</svg>
