<svg width="17" height="18" viewBox="0 0 17 18" fill="none" xmlns="http://www.w3.org/2000/svg">
<path d="M5.55233 10.1928C5.73214 9.83391 5.83333 9.42877 5.83333 9C5.83333 8.57123 5.73214 8.16609 5.55233 7.80717M5.55233 10.1928C5.11452 11.0667 4.21065 11.6667 3.16667 11.6667C1.69391 11.6667 0.5 10.4728 0.5 9C0.5 7.52724 1.69391 6.33333 3.16667 6.33333C4.21065 6.33333 5.11452 6.93326 5.55233 7.80717M5.55233 10.1928L11.4477 13.1405M5.55233 7.80717L11.4477 4.8595M11.4477 4.8595C11.8855 5.73341 12.7893 6.33333 13.8333 6.33333C15.3061 6.33333 16.5 5.13943 16.5 3.66667C16.5 2.19391 15.3061 1 13.8333 1C12.3606 1 11.1667 2.19391 11.1667 3.66667C11.1667 4.09544 11.2679 4.50058 11.4477 4.8595ZM11.4477 13.1405C11.2679 13.4994 11.1667 13.9046 11.1667 14.3333C11.1667 15.8061 12.3606 17 13.8333 17C15.3061 17 16.5 15.8061 16.5 14.3333C16.5 12.8606 15.3061 11.6667 13.8333 11.6667C12.7893 11.6667 11.8855 12.2666 11.4477 13.1405Z" stroke="white" stroke-linecap="round" stroke-linejoin="round"/>
</svg>
