<svg width="47" height="37" viewBox="0 0 47 37" fill="none" xmlns="http://www.w3.org/2000/svg">
<path d="M36 11V6C36 3.23858 33.7614 1 31 1H6C3.23858 1 1 3.23858 1 6V21C1 23.7614 3.23858 26 6 26H11M16 36H41C43.7614 36 46 33.7614 46 31V16C46 13.2386 43.7614 11 41 11H16C13.2386 11 11 13.2386 11 16V31C11 33.7614 13.2386 36 16 36ZM33.5 23.5C33.5 26.2614 31.2614 28.5 28.5 28.5C25.7386 28.5 23.5 26.2614 23.5 23.5C23.5 20.7386 25.7386 18.5 28.5 18.5C31.2614 18.5 33.5 20.7386 33.5 23.5Z" stroke="white" stroke-width="2" stroke-linecap="round" stroke-linejoin="round"/>
</svg>
