<svg width="303" height="392" viewBox="0 0 303 392" fill="none" xmlns="http://www.w3.org/2000/svg">
<g clip-path="url(#clip0_0_86)">
<path fill-rule="evenodd" clip-rule="evenodd" d="M-49.0006 -245.518L-33.7972 -253.944L72.2894 -190.498L89.059 -180.381L96.4298 -175.923L105.394 -170.49C114.678 -164.842 124.5 -158.758 134.075 -152.232C135.421 -151.315 136.763 -150.388 138.101 -149.451C143.573 -145.582 148.831 -141.492 153.84 -137.208C158.843 -132.929 163.602 -128.454 168.08 -123.812C176.966 -114.571 185.551 -104.028 194.324 -91.5819C199.704 -83.9497 205.047 -76.0037 210.271 -68.1646L214.164 -62.312C215.645 -60.084 217.126 -57.8551 218.61 -55.63L220.039 -53.4991C228.581 -40.8373 236.545 -30.3897 244.344 -21.6157C253.541 -11.2668 263.537 -2.75113 274.074 3.71588L275.183 4.38828C286.13 10.9339 298.773 15.9372 312.762 19.2587C325.022 22.1711 338.485 24.2707 355.13 25.8654L369.667 27.2466C379.298 28.1686 389.084 29.1504 398.607 30.3314C413.827 32.2179 427.281 34.8655 439.736 38.4223C452.229 42.0063 464.71 46.9311 476.829 53.0554C487.451 58.4646 497.843 64.3817 507.618 70.1009L511.315 72.2707C521.548 78.304 531.755 84.3554 541.947 90.3998L648.51 154.115L648.205 171.455L537.318 105.136C532.458 102.251 527.592 99.3663 522.722 96.4824L511.27 89.7072L503.532 85.1367L500.947 83.6205C489.429 76.8816 479.398 71.2656 468.824 66.1398C456.532 60.2191 443.672 55.6642 430.604 52.6012C417.976 49.6428 404.077 47.5595 388.109 46.2332C380.874 45.6317 373.493 45.1185 366.214 44.6358L352.416 43.7294L343.753 43.1451C341.71 43.0023 339.706 42.8468 337.737 42.6811C323.94 41.5155 311.935 39.7761 301.189 37.3911C287.658 34.3885 275.444 29.7338 264.87 23.5503L263.831 22.9343C253.142 16.5118 243.05 7.83942 233.833 -2.84375C225.643 -12.3366 217.44 -23.6507 208.751 -37.4332C206.838 -40.4664 204.934 -43.5113 203.032 -46.5593L196.508 -57.0254C192.807 -62.9507 189.038 -68.9471 185.266 -74.7804C176.638 -88.1254 168.338 -99.3178 159.893 -108.998C151.133 -119.038 141.196 -128.182 130.359 -136.176C119.636 -144.029 108.323 -151.099 97.695 -157.57C89.5822 -162.501 81.4713 -167.401 73.374 -172.286L64.533 -177.618L-49.0006 -245.518ZM-16.5777 -263.497L81.0216 -205.126C89.286 -200.146 97.5681 -195.156 105.857 -190.142L114.148 -185.119C124.081 -179.088 135.755 -171.901 147.015 -164.323C158.177 -156.77 168.525 -148.556 177.772 -139.908C187.168 -131.089 196.428 -120.959 205.297 -109.799C212.702 -100.482 219.996 -90.6149 227.099 -80.9099L230.78 -75.8718C240.505 -62.5598 248.944 -52.1927 257.338 -43.2456C266.701 -33.2649 276.76 -24.9509 287.258 -18.5129L288.463 -17.7829C299.404 -11.2453 311.934 -6.06961 325.704 -2.40045C337.567 0.759735 350.759 3.2999 367.222 5.59586L373.202 6.43146C385.211 8.11649 397.478 9.90149 409.461 12.0939C423.593 14.681 437.003 18.1208 449.313 22.3173C461.567 26.5167 473.471 31.7057 485.703 38.1837C497.739 44.5793 509.302 51.2984 520.006 57.6055L529.031 62.9417C533.84 65.7858 538.647 68.6311 543.446 71.4784L552.652 76.9408L587.084 97.5286L648.836 134.461L648.532 151.799L557.414 97.3033L556.409 96.7036C552.977 94.6508 549.553 92.6027 546.117 90.5465C538.619 86.0981 531.119 81.6477 523.607 77.2048L512.262 70.5078L508.617 68.3686C498.818 62.6353 488.397 56.7011 477.726 51.2671C465.497 45.0871 452.899 40.1179 440.279 36.4948C427.725 32.9096 414.172 30.2423 398.846 28.3427C388.111 27.0111 377.055 25.9337 366.263 24.9095L355.314 23.8715C338.764 22.2851 325.389 20.2003 313.217 17.3087C299.812 14.1208 287.668 9.37756 277.106 3.20117L276.016 2.55496C265.315 -3.87476 255.163 -12.4522 245.846 -22.9399C237.657 -32.1559 229.295 -43.2105 220.281 -56.7353L218.057 -60.0742L215.836 -63.4154C209.381 -73.1263 202.706 -83.1682 195.966 -92.7302C187.133 -105.257 178.485 -115.876 169.527 -125.196C165.253 -129.626 160.716 -133.9 155.961 -138.009C150.651 -142.599 145.071 -146.975 139.246 -151.091C137.886 -152.044 136.521 -152.988 135.15 -153.921C125.5 -160.497 115.694 -166.568 106.44 -172.195L105.105 -173.003C100.096 -176.044 95.086 -179.077 90.0814 -182.1L73.2695 -192.244L-31.7816 -255.069L-16.5777 -263.497ZM0.654381 -273.049L89.7657 -219.756C98.0348 -214.777 106.32 -209.789 114.613 -204.778L125.966 -197.904C134.632 -192.636 145.327 -186.054 155.926 -179.183C162.346 -174.993 168.349 -170.792 174.046 -166.514L176.317 -164.801L176.868 -164.372C180.487 -161.585 183.99 -158.762 187.388 -155.879C197.158 -147.58 206.869 -138.186 216.248 -127.958C218.437 -125.567 220.603 -123.154 222.773 -120.694L224.401 -118.839C229.293 -113.245 234.246 -107.376 239.599 -100.931L243.988 -95.6312L244.74 -94.7261C254.512 -82.9701 262.864 -73.7423 270.9 -65.8143C272.463 -64.2702 274.045 -62.7775 275.637 -61.3169L276.834 -60.2271C277.385 -59.729 277.931 -59.2175 278.485 -58.7281L279.397 -57.9461C286.43 -51.8181 293.694 -46.4357 301.105 -41.894L302.428 -41.0932C313.349 -34.5661 325.72 -29.1534 339.2 -25.0038C341.321 -24.3499 343.497 -23.7097 345.739 -23.077L347.521 -22.5791C356.503 -20.0991 366.533 -17.7554 378.374 -15.3612L379.564 -15.1216C392.674 -12.4926 406.682 -9.58011 420.276 -6.10535C421.967 -5.67004 423.65 -5.22375 425.323 -4.76788C437.034 -1.57062 448.282 2.15237 458.826 6.32269C470.549 10.9854 482.242 16.5456 494.572 23.3197C501.014 26.8818 507.476 30.5574 513.844 34.2104L522.702 39.304L528.832 42.8332L649.195 114.82L648.893 132.156L554.894 75.9364L544.469 69.76C539.667 66.9106 534.857 64.0638 530.043 61.2166C527.036 59.4376 524.041 57.6547 521.028 55.878L517.422 53.7574C507.725 48.0671 497.379 42.1146 486.647 36.4112C474.322 29.8851 462.324 24.6533 449.967 20.4213C437.562 16.1915 424.058 12.7273 409.828 10.1223C396.808 7.73965 383.473 5.84033 370.494 4.02759L367.506 3.61063C351.123 1.32669 338.007 -1.20041 326.226 -4.33942C312.636 -7.95874 300.279 -13.0623 289.498 -19.5049L289.244 -19.6574C278.561 -26.0763 268.321 -34.4727 258.803 -44.618C250.874 -53.071 242.896 -62.8096 233.81 -75.1388L232.334 -77.1504L228.783 -82.0088C221.649 -91.7595 214.321 -101.674 206.871 -111.049C197.933 -122.292 188.605 -132.493 179.146 -141.372C169.821 -150.093 159.39 -158.374 148.142 -165.986C136.952 -173.52 125.693 -180.458 115.192 -186.834C107.092 -191.75 98.9953 -196.637 90.9114 -201.511L82.0229 -206.868L-14.5481 -264.622L0.654381 -273.049ZM2.67774 -274.17L17.8816 -282.597L131.719 -214.512L136.495 -211.559L147.108 -205.009C152.976 -201.384 158.932 -197.69 164.798 -193.996C176.815 -186.373 187.309 -179.067 196.881 -171.661C206.9 -163.906 217.022 -155.183 226.966 -145.737L228.646 -144.131C237.864 -135.284 246.652 -126.25 253.671 -118.924L258.075 -114.325C265.484 -106.622 274.766 -97.2229 284.519 -88.4557C286.417 -86.7484 288.333 -85.1034 290.258 -83.4873C298.366 -76.6638 306.664 -70.6336 315.019 -65.526L316.523 -64.6127C327.379 -58.1203 339.563 -52.4255 352.738 -47.6861C365.153 -43.2183 377.875 -39.4703 388.204 -36.5753L394.886 -34.7166C409.306 -30.6931 420.505 -27.326 430.859 -23.9072C443.917 -19.5859 456.491 -14.7311 468.23 -9.47772C479.359 -4.46774 490.87 1.41528 503.423 8.50766C509.341 11.8736 515.31 15.3175 521.179 18.7165L534.061 26.1809C535.235 26.8602 536.408 27.5386 537.579 28.2154L649.533 95.1722L649.231 112.507L529.851 41.1072L523.442 37.4223L517.326 33.9007C510.147 29.7733 502.831 25.5986 495.537 21.5685C483.111 14.7408 471.344 9.14609 459.563 4.46222C458.047 3.86288 456.517 3.27231 454.973 2.69235C444.164 -1.37473 432.683 -4.97934 420.773 -8.0423C411.679 -10.3669 402.414 -12.4352 393.352 -14.3384C390.33 -14.9731 387.33 -15.5907 384.368 -16.192L378.718 -17.3331L376.31 -17.8254C364.795 -20.2014 355.034 -22.531 346.295 -24.9976C344.066 -25.6267 341.902 -26.2655 339.789 -26.917C326.449 -31.0251 314.224 -36.3723 303.454 -42.8096L303.194 -42.9657C292.521 -49.379 282.129 -57.5435 272.304 -67.2372L271.132 -68.4016C263.299 -76.2287 255.099 -85.3602 245.495 -96.9469L242.878 -100.11C233.809 -111.061 225.945 -120.333 217.722 -129.31C208.29 -139.596 198.52 -149.048 188.682 -157.403C187.003 -158.828 185.297 -160.237 183.566 -161.635L181.334 -163.426C179.671 -164.744 177.97 -166.051 176.253 -167.352C170.222 -171.92 163.856 -176.396 157.016 -180.86L155.128 -182.081C143.8 -189.381 132.579 -196.238 123.944 -201.47C112.881 -208.174 101.824 -214.83 90.7657 -221.488L2.67774 -274.17ZM35.1087 -292.143L140.465 -229.131L147.397 -224.873L154.34 -220.619C160.773 -216.68 167.211 -212.736 173.639 -208.76L175.863 -207.373C187.598 -200.034 197.298 -193.598 206.234 -187.224C216.6 -179.824 227.075 -171.676 237.369 -163.006L239.121 -161.526C249.026 -153.126 258.546 -144.584 266.058 -137.767L269.942 -134.243C277.695 -127.226 287.424 -118.595 297.648 -110.287C307.982 -101.891 318.064 -94.724 328.41 -88.4221L329.928 -87.5052L330.151 -87.3714C341.107 -80.8201 352.761 -74.9946 365.777 -69.5619L367.904 -68.6797C379.607 -63.8583 391.381 -59.5485 400.897 -56.1584L407.727 -53.7288C417.508 -50.2336 429.414 -45.8842 441.141 -41.2113C453.757 -36.1815 465.988 -30.7419 477.491 -25.0421L479.358 -24.1111C489.342 -19.1035 499.85 -13.3962 512.236 -6.25711C516.628 -3.71524 521.011 -1.1633 525.39 1.39178L531.957 5.22589C536.747 8.02365 541.534 10.8207 546.315 13.599L649.88 75.5389L649.578 92.8683L538.597 26.4925L533.454 23.5166L519.425 15.3866C514.446 12.5068 509.413 9.60944 504.413 6.76465C491.806 -0.357941 480.24 -6.26758 469.055 -11.304C457.254 -16.5851 444.616 -21.465 431.493 -25.8076L429.319 -26.5203C417.001 -30.5305 404.728 -34.0526 394.843 -36.8079L388.645 -38.5333C378.34 -41.4249 365.686 -45.1568 353.42 -49.5687C340.821 -54.1019 329.138 -59.5155 318.671 -65.6689L317.189 -66.5496C306.575 -72.9268 296.037 -80.7963 285.862 -89.9435C276.111 -98.7162 266.874 -108.068 259.511 -115.725L253.909 -121.572C246.661 -129.12 237.698 -138.29 228.35 -147.188C218.353 -156.684 208.178 -165.451 198.111 -173.245C188.52 -180.668 177.976 -188.01 165.872 -195.689C159.025 -200.001 152.061 -204.308 145.257 -208.507L142.352 -210.299C139.158 -212.27 135.965 -214.24 132.765 -216.221L19.9096 -283.72L35.1087 -292.143ZM52.332 -301.692L182.603 -223.782C185.29 -222.038 187.985 -220.304 190.684 -218.573L194.733 -215.977C201.542 -211.617 208.583 -207.107 215.438 -202.542C225.309 -195.966 235.391 -188.812 245.435 -181.253L247.443 -179.736C257.008 -172.484 266.44 -164.995 274.25 -158.718L282.09 -152.401C290.077 -145.981 299.892 -138.211 309.949 -130.737C321.157 -122.399 331.955 -115.138 342.879 -108.616C353.832 -102.064 365.322 -95.9903 378.001 -90.0464L380.07 -89.0804C390.419 -84.2705 400.797 -79.7731 409.528 -76.0654L419.476 -71.8604C431.932 -66.5794 441.846 -62.2302 451.122 -57.9834C463.466 -52.3094 475.414 -46.3867 486.634 -40.3778C492.083 -37.458 497.557 -34.4315 502.935 -31.4352L514.747 -24.8456C516.902 -23.6469 519.054 -22.4538 521.203 -21.2714L650.212 55.887L649.909 73.2172L547.342 11.8731L540.29 7.76645L533.241 3.65149C528.803 1.05972 524.364 -1.53329 519.919 -4.1189L513.242 -7.99167L510.933 -9.31842C498.731 -16.3063 488.335 -21.8996 478.387 -26.835C466.878 -32.5402 454.598 -38.002 441.887 -43.0706L439.784 -43.9045C428.569 -48.3299 417.453 -52.3845 408.267 -55.6644L398.938 -58.9861C389.361 -62.4214 377.863 -66.6852 366.553 -71.4081C354.339 -76.5061 342.882 -82.1927 332.479 -88.3209L330.741 -89.3541C320.45 -95.5375 310.439 -102.568 300.196 -110.806L298.915 -111.842C290.835 -118.406 282.385 -125.702 271.856 -135.215L264.525 -141.859C256.989 -148.665 247.89 -156.765 238.663 -164.536C228.293 -173.267 217.777 -181.448 207.401 -188.854L205.712 -190.053C196.653 -196.454 186.74 -202.976 174.698 -210.461C170.409 -213.114 166.117 -215.752 161.825 -218.383L155.391 -222.326C150.761 -225.161 146.135 -227.994 141.508 -230.842L37.1333 -293.268L52.332 -301.692ZM647.843 191.075L528.672 119.801L520.643 115.046C514.903 111.644 509.161 108.242 503.412 104.844L494.783 99.7513L492.562 98.4475C482.825 92.7451 471.653 86.3947 459.927 80.9698C447.683 75.3637 434.59 71.1868 421.013 68.5531C408.302 66.087 394.16 64.4177 377.777 63.4499C372.641 63.1464 367.425 62.8735 362.273 62.6133L349.57 61.9788C344.067 61.7008 338.496 61.407 333.016 61.0758C316.733 60.0933 302.764 58.2868 290.311 55.5559C276.385 52.5013 263.869 47.69 253.11 41.258L252.894 41.1282C242.217 34.7124 232.144 26.0308 222.959 15.3222C214.658 5.64859 206.502 -5.73859 198.022 -19.4884C194.437 -25.294 190.844 -31.2457 187.336 -37.0742L182.084 -45.8007C179.728 -49.7095 177.34 -53.6531 174.965 -57.5263C166.453 -71.4104 158.402 -83.0074 150.352 -92.9801C141.701 -103.699 131.99 -113.225 121.486 -121.298C110.862 -129.417 99.575 -136.508 88.9604 -142.963C81.4978 -147.494 74.0376 -152 66.5887 -156.494L55.7933 -163.003L-66.2232 -235.977L-51.032 -244.397L63.494 -175.905L64.2401 -175.455C75.021 -168.953 85.8329 -162.434 96.6466 -155.862L100.008 -153.809C109.589 -147.936 119.609 -141.568 129.165 -134.565C139.868 -126.671 149.696 -117.626 158.377 -107.683C166.75 -98.094 174.993 -86.9763 183.578 -73.6962C187.37 -67.8304 191.163 -61.7971 194.886 -55.8346L198.583 -49.9045C201.4 -45.3853 204.217 -40.8638 207.052 -36.3674L208.465 -34.1402C216.686 -21.2733 224.502 -10.5896 232.311 -1.5372C241.41 9.01553 251.36 17.6377 261.903 24.1085L262.981 24.7613C273.934 31.3066 286.641 36.213 300.748 39.3435C311.581 41.7474 323.673 43.4994 337.56 44.6725C339.544 44.8402 341.564 44.996 343.623 45.14L352.309 45.7267L366.116 46.6343C373.373 47.1156 380.729 47.6269 387.935 48.2252C403.803 49.5438 417.609 51.6117 430.139 54.5478C443.083 57.585 455.803 62.0909 467.944 67.9407C478.811 73.2032 489.163 79.0292 501.211 86.098L506.103 88.9789L514.367 93.8614L523.305 99.1556C527.74 101.785 532.11 104.38 536.36 106.906L648.145 173.763L647.843 191.075ZM647.718 200.039L638.337 205.239L519.926 134.421L515.218 131.626C508.75 127.787 502.277 123.945 495.795 120.108L486.064 114.358C475.791 108.304 463.767 101.377 451.067 95.7704C439.011 90.4853 425.741 86.5996 411.625 84.2206C398.951 82.0834 384.677 80.6408 367.99 79.8086C364.864 79.6538 361.734 79.5066 358.603 79.3619L346.269 78.7933C338.587 78.4327 330.8 78.0411 323.171 77.553C307.092 76.524 293.175 74.634 280.624 71.778C267.157 68.7075 254.973 64.0172 244.392 57.8315L243.291 57.1787C232.607 50.7588 222.503 42.133 213.257 31.54C204.831 21.8876 196.623 10.5861 188.163 -3.00916C182.658 -11.856 177.184 -21.0354 171.89 -29.9144C169.655 -33.6641 167.419 -37.4106 165.178 -41.1434C156.641 -55.3501 148.726 -67.1631 140.978 -77.2572C132.319 -88.5314 122.785 -98.3559 112.639 -106.461C102.228 -114.716 90.9076 -121.86 80.2253 -128.35C72.4602 -133.061 64.6974 -137.747 56.9464 -142.419L47.0534 -148.38L-72.5373 -219.902L-72.3175 -232.597L-68.2565 -234.849L54.7507 -161.283L55.6497 -160.741C66.3797 -154.27 77.1405 -147.781 87.9074 -141.248C98.5029 -134.802 109.755 -127.731 120.256 -119.705C130.632 -111.73 140.231 -102.313 148.782 -91.7163C156.772 -81.8168 164.776 -70.2903 173.248 -56.4757C175.617 -52.6108 178 -48.6745 180.352 -44.7725L187.364 -33.1234C190.314 -28.2304 193.312 -23.2816 196.306 -18.4318C204.862 -4.56366 213.079 6.90448 221.427 16.6312C230.516 27.2203 240.466 35.8642 251.02 42.3428L252.071 42.9797C263.025 49.5264 275.742 54.4165 289.869 57.5141C302.416 60.2676 316.488 62.0878 332.883 63.0795C339.454 63.4754 346.153 63.8182 352.708 64.1457L362.123 64.6151C367.282 64.8752 372.507 65.1488 377.648 65.4521C393.946 66.4161 408.003 68.0746 420.62 70.5227C434.062 73.1316 447.003 77.2604 459.078 82.7937C470.426 88.0433 481.148 94.0611 493.757 101.481C505.039 108.13 516.29 114.806 527.521 121.471L647.836 193.428L647.718 200.039ZM621.085 214.784L511.157 149.041C499.895 142.344 488.616 135.642 477.304 128.961L474.791 127.48C464.679 121.542 453.872 115.457 442.22 110.501C430.261 105.452 416.886 101.741 402.466 99.4739C389.769 97.4771 375.877 96.1279 358.747 95.2263L344.08 94.4625C334.131 93.9379 324.019 93.3638 314.164 92.5965C298.337 91.3654 284.542 89.2759 271.988 86.2093C258.303 82.8679 245.878 77.8936 235.051 71.4259L234.814 71.2832C224.085 64.8365 213.918 56.3176 204.592 45.961C195.987 36.4014 187.66 25.3024 179.137 12.028C172.975 2.42761 166.892 -7.58267 160.978 -17.3672L155.936 -25.713L154.649 -27.8334C146.757 -40.7761 139.768 -51.2781 132.838 -60.6089L131.826 -61.9671C123.125 -73.5589 113.697 -83.5568 103.801 -91.6834C94.1692 -99.5719 83.9104 -106.207 71.4707 -113.745C60.3947 -120.451 49.3294 -127.115 38.2893 -133.757L-72.8963 -200.254L-72.594 -217.592L46.0082 -146.662L63.0321 -136.397C68.4081 -133.153 73.7886 -129.901 79.1707 -126.638L81.9554 -124.94C91.7448 -118.943 101.947 -112.375 111.377 -104.892C121.399 -96.8916 130.819 -87.1823 139.374 -76.0346L140.66 -74.346C147.958 -64.6857 155.428 -53.4623 163.447 -40.11C164.93 -37.6419 166.409 -35.1671 167.887 -32.6894L170.104 -28.9714C175.42 -20.0563 180.916 -10.8378 186.448 -1.94897C194.973 11.741 203.243 23.1266 211.733 32.8581C220.852 43.314 230.817 51.8876 241.365 58.3616L242.472 59.0328C253.433 65.5836 266.113 70.5287 280.162 73.731C292.798 76.6111 306.819 78.5154 323.026 79.5531C330.657 80.0413 338.44 80.4331 346.117 80.7936L353.749 81.1461C358.461 81.3631 363.172 81.5782 367.874 81.8118L370.618 81.9545C386.042 82.7953 399.367 84.186 411.276 86.1959C425.232 88.5477 438.344 92.3875 450.245 97.6063C461.981 102.785 473.157 109.118 482.893 114.828L485.031 116.086C491.317 119.793 497.592 123.509 503.858 127.226L518.876 136.137L636.287 206.358L621.085 214.784ZM603.874 224.347L468.632 143.462L465.203 141.479C455.549 135.909 444.826 129.899 433.45 125.171C421.594 120.245 408.196 116.577 393.628 114.27L391.873 113.998C380.112 112.204 367.13 110.865 351.289 109.811L341.724 109.184C329.828 108.396 317.713 107.538 305.96 106.374C290.433 104.835 276.802 102.472 264.286 99.1498C250.801 95.57 238.448 90.4579 227.572 83.9589L227.314 83.8039C216.543 77.3319 206.298 68.9477 196.858 58.8811C188.037 49.4721 179.545 38.6447 170.897 25.779C164.086 15.6423 157.491 5.18185 151.082 -5.09293L147.26 -11.2314C138.226 -25.744 130.512 -37.1651 122.982 -47.1729C114.204 -58.8393 104.803 -68.8791 95.0407 -77.0105C84.5255 -85.7705 72.8562 -93.0271 62.7431 -99.1421C51.6665 -105.84 40.6 -112.494 29.5514 -119.137L-73.2344 -180.609L-72.9323 -197.94L37.2662 -132.035C48.3016 -125.395 59.366 -118.731 70.4394 -112.027L72.8058 -110.587C84.116 -103.679 93.6107 -97.44 102.537 -90.1308C112.32 -82.0897 121.637 -72.2084 130.232 -60.7585L130.771 -60.0356L131.312 -59.308C138.562 -49.5305 145.874 -38.4774 154.219 -24.6844L157.302 -19.5856C159.324 -16.2369 161.374 -12.8514 163.435 -9.45837C166.369 -4.62814 169.333 0.220123 172.331 5.01624C173.073 6.20279 173.822 7.36877 174.567 8.54797L176.489 11.5943L177.458 13.1142C186.034 26.4767 194.425 37.6601 203.112 47.3067C212.302 57.513 222.303 65.9624 232.857 72.4393L234.031 73.1509C245.026 79.72 257.639 84.7702 271.517 88.1603C284.182 91.2531 298.082 93.3587 314.014 94.5984C323.882 95.3663 333.998 95.9407 343.949 96.4657L358.648 97.2318C375.668 98.123 389.494 99.4659 402.16 101.457C416.418 103.7 429.637 107.365 441.445 112.35C453.939 117.664 465.511 124.324 476.293 130.69C487.603 137.371 498.882 144.072 510.14 150.768L619.07 215.915L603.874 224.347ZM586.633 233.884L459.888 158.082L456.463 156.089C446.818 150.491 436.106 144.45 424.747 139.711C412.959 134.791 399.611 131.046 385.074 128.581L383.442 128.308C372.221 126.459 359.656 124.948 344.222 123.588L341.942 123.39C336.813 122.951 331.728 122.509 326.687 122.048L324.005 121.801C321.768 121.592 319.543 121.377 317.324 121.157C315.393 120.965 313.468 120.768 311.549 120.565C310.151 120.418 308.755 120.267 307.364 120.113C305.733 119.931 304.105 119.745 302.483 119.553L298.396 119.061C283.158 117.153 269.714 114.478 257.295 110.883C244.009 107.037 231.737 101.778 220.818 95.2552C209.899 88.7195 199.469 80.4295 189.83 70.5919C180.812 61.3887 172.134 50.8712 163.301 38.4388C162.091 36.7356 160.888 35.0199 159.69 33.2969C153.784 24.8007 147.975 16.0248 142.401 7.49731L137.737 0.349548C131.493 -9.18658 125.922 -17.3067 120.665 -24.5217L120.103 -25.2913C118.171 -27.9315 116.281 -30.4496 114.414 -32.8722C105.494 -44.4478 96.0466 -54.4069 86.3381 -62.4687C76.3614 -70.7522 65.8195 -77.4037 54.0568 -84.6313L-73.5775 -160.964L-73.2736 -178.293L28.5335 -117.406C39.5675 -110.772 50.632 -104.12 61.7081 -97.4214L63.8083 -96.148C73.3501 -90.3439 84.0672 -83.539 93.76 -75.4655C103.396 -67.4394 112.689 -57.5128 121.384 -45.961L122.427 -44.567C129.569 -34.974 136.954 -23.9898 145.56 -10.1656L149.401 -3.99939C155.838 6.32037 162.454 16.8149 169.238 26.9032C177.948 39.8633 186.505 50.773 195.398 60.2567C204.674 70.1516 214.724 78.4427 225.29 84.9238L226.546 85.6847C237.579 92.2793 250.104 97.4622 263.772 101.091C276.39 104.443 290.124 106.824 305.761 108.372C318.764 109.661 332.192 110.574 345.282 111.432L349.965 111.737L353.499 111.975C368.994 113.054 381.723 114.424 393.314 116.255C407.711 118.531 420.956 122.155 432.681 127.027C445.301 132.271 457.166 139.143 467.621 145.197L601.832 225.466L586.633 233.884ZM569.426 243.443L451.147 172.704L446.561 170.025C437.227 164.594 426.936 158.809 416.12 154.166C404.281 149.085 391.417 145.262 376.792 142.477L375.242 142.186C363.831 140.065 351.398 138.286 335.331 136.474L329.617 135.832C317.636 134.476 304.261 132.877 291.369 130.886C276.422 128.578 263.172 125.577 250.86 121.71C237.786 117.607 225.593 112.204 214.622 105.647L214.348 105.482L212.996 104.643C212.161 104.13 211.327 103.619 210.497 103.088C202.759 98.1138 195.253 92.3369 188.109 85.8511C187.748 85.5235 187.383 85.2072 187.023 84.8756L186.779 84.6436C185.63 83.5789 184.488 82.4986 183.359 81.3964C174.146 72.4122 165.271 62.2195 156.226 50.2327L154.718 48.2259C147.447 38.5041 140.364 28.4235 132.182 16.5611L130.087 13.5242C120.83 0.146454 113.389 -9.94849 106.107 -19.0142C96.8657 -30.5156 87.5722 -40.0079 77.6935 -48.0331C67.5876 -56.2414 56.6131 -63.1109 45.3135 -70.01L-73.9146 -141.315L-73.6115 -158.651L53.0247 -82.9135L56.8766 -80.5379C67.0333 -74.2438 76.2872 -68.2116 85.0658 -60.922C94.6626 -52.9519 104.005 -43.101 112.835 -31.6427C115.342 -28.389 117.891 -24.9631 120.527 -21.3023L121.409 -20.0733C126.141 -13.4532 131.166 -6.05734 136.733 2.46948L140.296 7.93591C146.129 16.8687 152.242 26.1157 158.531 35.1354C159.577 36.6353 160.625 38.1259 161.675 39.6042C170.566 52.1213 179.31 62.7171 188.406 71.9985C197.782 81.5664 207.893 89.6948 218.481 96.181L219.798 96.9786C230.863 103.591 243.292 108.917 256.743 112.811C269.262 116.436 282.808 119.131 298.153 121.052L299.801 121.244C302.245 121.542 304.701 121.828 307.172 122.103C308.535 122.254 309.904 122.402 311.273 122.547C313.23 122.754 315.194 122.955 317.165 123.15L320.436 123.47L325.16 123.917L326.604 124.049C330.371 124.393 334.151 124.73 337.959 125.062L344.047 125.588C360.169 127.007 373.151 128.595 384.743 130.561C399.132 133.001 412.332 136.702 423.982 141.563C436.611 146.833 448.447 153.735 458.88 159.82L584.621 235.021L569.426 243.443ZM534.965 262.53L433.673 201.951L430.204 199.901C427.911 198.549 425.656 197.224 423.423 195.923L420.732 194.357L419.156 193.448L416.485 191.916C410.748 188.643 405.081 185.518 399.261 182.503L399.195 182.471C386.644 177.054 373.728 172.633 360.804 169.331L358.57 168.768C348.329 166.217 337.12 163.867 322.904 161.291L313.449 159.596C311.911 159.319 310.397 159.045 308.902 158.772L305.169 158.085L302.654 157.616L299.063 156.939L297.267 156.595L293.992 155.96L292.041 155.575L288.744 154.917L286.956 154.551L283.431 153.823C282.482 153.624 281.537 153.419 280.59 153.215C279.855 153.058 279.117 152.903 278.384 152.742C263.997 149.598 251.131 145.945 239.049 141.579C235.868 140.43 232.73 139.213 229.64 137.933C220.468 134.13 211.714 129.751 203.507 124.866L203.228 124.704C193.308 118.724 183.618 111.724 174.441 103.81L173.297 102.815C172.692 102.285 172.081 101.763 171.479 101.225C161.926 92.6736 152.661 83.1224 143.154 72.0225C134.682 62.1367 126.299 51.6845 118.433 41.7385L115.403 37.9052C105.571 25.5034 97.7019 16.1457 90.0482 7.74503C81.1369 -2.02985 71.2903 -11.2793 60.7265 -19.7896C50.8699 -26.6533 40.593 -33.0273 31.3774 -38.6165L27.6444 -40.8737L-74.604 -102.023L-74.3016 -119.361L35.5397 -53.67L38.8963 -51.6289C48.4612 -45.7962 58.46 -39.5315 68.1033 -32.5849C78.2989 -23.9144 87.8456 -14.3679 96.4829 -4.21051L97.9618 -2.46024C104.883 5.77856 112.112 15.051 121.024 27.1237L122.309 28.8677C130.39 39.8538 139.093 51.5485 147.991 62.6182C157.315 74.2207 166.448 84.1581 175.916 92.9992C185.816 102.246 196.413 110.285 207.419 116.898L207.779 117.113C218.909 123.763 231.155 129.367 244.181 133.768C256.47 137.922 269.616 141.274 284.371 144.015C297.094 146.377 309.898 148.332 325.053 150.503L326.576 150.721C343.684 153.166 356.551 155.405 368.297 157.978C381.437 160.857 394.458 164.87 407.001 169.907C418.573 175.686 429.871 182.262 441.383 189.05L550.16 254.108L534.965 262.53ZM515.703 273.214L500.507 281.635L416.181 231.204C405.894 225.048 395.785 219.031 385.507 213.227L382.032 211.276C370.27 205.457 357.914 200.136 345.265 195.446C333.562 191.692 321.209 188.129 307.557 184.568L299.297 182.427C288.335 179.58 277.14 176.628 266.095 173.454C252.184 169.455 239.685 165.177 227.883 160.378C215.944 155.52 204.503 149.885 193.85 143.615L191.971 142.498C181.082 135.956 170.41 128.381 160.245 119.979C150.434 111.873 140.792 102.935 130.764 92.6537L128.885 90.7229C121.082 82.6764 113.546 74.5789 104.863 65.1841L102.757 62.9038C92.7644 52.0851 83.5004 42.5476 74.4026 33.7177C64.4329 24.848 54.0544 16.5167 43.5131 8.92639C33.2187 2.25635 22.5956 -4.17621 12.4924 -10.2285L-75.2973 -62.7316L-74.9948 -80.061L20.5844 -22.8969C31.8737 -16.1224 41.5051 -10.1928 50.9846 -3.85394C61.2189 3.91354 71.3143 12.5741 80.9557 21.8543L82.7312 23.7548C90.449 32.0489 98.4901 41.1164 107.221 51.3686L113.103 58.2781C121.037 67.5701 128.125 75.7124 135.451 83.7353C145.287 94.5005 154.798 103.802 164.53 112.169C169.629 116.553 174.875 120.696 180.231 124.576C181.109 125.211 181.993 125.829 182.878 126.452L184.182 127.374C185.116 128.022 186.056 128.651 186.996 129.281L188.275 130.146L189.205 130.749L190.136 131.349C190.946 131.873 191.755 132.399 192.568 132.911L193.004 133.179C194.118 133.877 195.233 134.57 196.355 135.244L196.808 135.515C207.98 142.185 220.064 148.033 232.723 152.896C244.759 157.523 257.518 161.51 271.726 165.084C284.519 168.304 297.763 171.224 309.476 173.752L312.371 174.375C327.225 177.569 340.407 180.729 352.62 184.019C365.531 188.242 378.034 193.155 389.781 198.622C400.868 204.611 411.676 210.995 421.862 217.088L515.703 273.214ZM481.253 292.3L466.054 300.726L388.599 254.406C380.383 249.5 372.587 244.866 364.743 240.263C353.165 233.89 341.231 227.887 329.241 222.408C317.449 217.497 305.183 212.752 291.73 207.898L278.71 203.356C270.381 200.444 261.932 197.469 253.633 194.455C240.062 189.522 227.927 184.621 216.535 179.472C204.327 173.953 192.534 167.806 181.483 161.204C170.4 154.561 159.441 147.137 148.833 139.029C138.9 131.441 128.879 123.113 118.197 113.57C110.147 106.379 102.057 98.9739 94.172 91.7386L88.5216 86.552C78.0293 77.1151 68.1473 68.612 58.2838 60.5342C47.938 52.6262 37.1498 44.9925 26.1928 37.8337L23.198 36.0015C12.7112 29.5988 2.20766 23.3175 -7.15404 17.7222L-75.9789 -23.4371L-75.676 -40.7768L0.626076 4.8555C8.53689 9.58545 16.3135 14.2534 23.9928 18.9668L26.9172 20.7713L29.8321 22.5815C31.1428 23.396 32.4606 24.2065 33.7664 25.0272C44.38 32.2935 54.9262 40.2251 65.0821 48.5754C74.6575 57.0822 84.4841 66.3279 94.2865 76.0547L103.493 85.1917C109.967 91.6089 116.571 98.1152 123.171 104.432L124.198 105.409L125.223 106.377C133.865 114.567 142.18 121.89 150.491 128.625L151.738 129.631C152.283 130.068 152.827 130.513 153.372 130.946C163.412 138.928 173.85 146.246 184.503 152.675L186.03 153.59C197.152 160.235 209.086 166.309 221.498 171.643C233.136 176.643 245.51 181.253 259.325 185.737C262.069 186.628 264.831 187.51 267.601 188.386C269.08 188.853 270.564 189.314 272.046 189.776C273.282 190.163 274.518 190.553 275.755 190.937C279.162 191.993 282.566 193.04 285.947 194.076L298.26 197.839C311.577 201.917 324.478 206.257 336.568 210.729C348.799 215.802 360.88 221.454 372.443 227.51C382.439 233.245 392.225 239.059 402.84 245.405L481.253 292.3ZM-75.6332 -43.0808L-75.3302 -60.4111L9.301 -9.79755C19.9273 -3.44177 31.2402 3.36737 42.3777 10.581C52.8178 18.1011 63.144 26.3893 73.0345 35.1869C82.0682 43.9584 91.3073 53.4694 101.281 64.265L105.846 69.2048C113.222 77.1749 121.25 85.7837 129.325 94.0551C139.408 104.39 149.102 113.376 158.962 121.526C169.203 129.989 179.951 137.619 190.919 144.209L191.431 144.515C202.561 151.167 214.57 157.128 227.122 162.237C238.989 167.065 251.554 171.366 265.535 175.38C278.932 179.227 292.959 182.86 305.333 186.065L308.501 186.891C321.601 190.334 333.452 193.765 344.604 197.341C357.15 201.993 369.441 207.286 381.093 213.05C392.533 219.433 403.728 226.092 415.142 232.923L498.48 282.763L483.288 291.182L399.887 241.309C390.934 235.969 382.871 231.2 374.568 226.423L373.4 225.754C361.792 219.669 349.656 213.991 337.295 208.865C325.133 204.367 312.196 200.014 298.842 195.924L286.155 192.047C282.932 191.06 279.688 190.063 276.441 189.055C270.922 187.343 265.395 185.603 259.939 183.832C246.182 179.367 233.866 174.778 222.285 169.802C209.953 164.505 198.101 158.472 187.052 151.871C176.033 145.296 165.094 137.704 154.619 129.382L153.734 128.673L152.849 127.958C144.401 121.16 135.956 113.765 127.173 105.47L125.432 103.823C125.141 103.547 124.849 103.269 124.557 102.989C117.945 96.6561 111.322 90.1328 104.83 83.6979L95.6995 74.637C85.8649 64.8802 76.0119 55.6105 66.3849 47.0576C56.1519 38.6434 45.559 30.6768 34.8674 23.3578L33.5203 22.5204C24.2107 16.6912 14.7938 11.005 5.19678 5.25894L-6.63815 -1.8204L-75.6332 -43.0808ZM-74.6416 -99.7154L26.6118 -39.1609L30.3353 -36.9094C39.5238 -31.3366 49.7653 -24.9852 59.5238 -18.1918C69.9498 -9.79004 79.7211 -0.61142 88.5668 9.09018L89.5808 10.2068C96.6913 18.0672 104.093 26.8849 113.203 38.3541L118.558 45.1208C125.941 54.4321 133.745 64.1182 141.631 73.3227C151.202 84.4913 160.528 94.1059 170.141 102.713C170.663 103.181 171.195 103.634 171.721 104.096C172.468 104.751 173.21 105.412 173.963 106.056L174.25 106.295C182.674 113.469 191.503 119.894 200.579 125.441L202.02 126.313L202.484 126.585C210.762 131.515 219.603 135.938 228.873 139.78C231.993 141.074 235.161 142.302 238.372 143.462C250.51 147.854 263.459 151.528 277.96 154.698L279.059 154.935L283.018 155.779L284.723 156.132C285.932 156.383 287.143 156.633 288.362 156.88L291.61 157.529L294.288 158.055L297.467 158.67L300.718 159.287L303.716 159.85L308.695 160.767L313.764 161.686L322.548 163.261C337.763 166.017 349.513 168.512 360.313 171.271C373.093 174.535 385.897 178.916 398.372 184.296L400.276 185.296C401.07 185.714 401.867 186.127 402.657 186.549L403.763 187.148C404.832 187.721 405.9 188.295 406.963 188.877L408.053 189.481C409.109 190.063 410.165 190.645 411.218 191.235L412.828 192.145C413.705 192.638 414.581 193.131 415.456 193.631L418.5 195.379L420.579 196.581C424.592 198.91 428.604 201.279 432.639 203.672L532.937 263.656L517.743 272.079L424.934 216.574C414.068 210.071 402.474 203.191 390.66 196.814C378.814 191.302 366.227 186.355 353.202 182.094C340.905 178.782 327.69 175.614 312.802 172.412L307.877 171.35C296.304 168.845 284.19 166.152 272.224 163.138C258.116 159.586 245.432 155.624 233.449 151.02C220.876 146.191 208.895 140.394 197.842 133.789C186.832 127.234 176.038 119.41 165.842 110.644C156.148 102.308 146.693 93.0625 136.936 82.3792C128.62 73.2757 120.59 63.9626 112.994 55.0478L107.741 48.8789C98.6915 38.2892 90.3873 28.9743 82.3867 20.4415C72.6219 11.0463 62.466 2.3331 52.1549 -5.49103C41.8524 -12.3779 31.4737 -18.7284 19.0845 -26.1422L-74.9441 -82.3743L-74.6416 -99.7154ZM44.2839 -68.2907C55.5296 -61.424 66.4507 -54.5901 76.4371 -46.4722C86.2104 -38.5279 95.4079 -29.1341 104.553 -17.7536L105.52 -16.5445C112.461 -7.83182 119.623 1.91962 128.446 14.6695L133.053 21.3399C140.765 32.4798 147.572 42.0888 154.634 51.4459C163.741 63.5119 172.682 73.7794 181.966 82.8354C183.945 84.7679 185.964 86.6258 188.001 88.4426C188.493 88.8809 188.98 89.3322 189.476 89.764L190.4 90.548C196.506 95.8046 202.849 100.558 209.374 104.744C210.385 105.395 211.406 106.019 212.427 106.644L213.599 107.371C224.707 114.009 237.043 119.477 250.266 123.625C262.673 127.522 276.02 130.546 291.068 132.869C302.87 134.693 315.066 136.187 326.231 137.467L336.2 138.592C352.442 140.442 364.923 142.26 376.423 144.45C390.893 147.202 403.622 150.983 415.335 156.011C427.876 161.394 439.704 168.326 450.133 174.439L567.38 244.561L552.185 252.983L442.406 187.327L438.821 185.218C428.156 178.957 418.261 173.289 407.782 168.059C395.124 162.974 381.982 158.923 368.724 156.02L367.205 155.69C356.527 153.395 344.898 151.361 330.082 149.2L321.262 147.932C309.844 146.28 297.16 144.353 284.735 142.044C270.074 139.319 257.016 135.991 244.817 131.868C231.928 127.511 219.811 121.969 208.804 115.391L208.552 115.24C207.959 114.882 207.37 114.507 206.78 114.142L205.347 113.261C205.109 113.113 204.871 112.964 204.634 112.812C198.616 108.971 192.734 104.702 187.033 100.045L184.789 98.199C184.414 97.8837 184.047 97.5547 183.673 97.2346C181.515 95.3869 179.378 93.4937 177.279 91.5327C167.902 82.779 158.831 72.9097 149.549 61.3602C141.3 51.0964 133.168 40.2287 125.545 29.885L123.919 27.6769C113.736 13.83 105.744 3.59491 98.0052 -5.51123C89.3138 -15.7396 79.6891 -25.3621 69.3349 -34.1629C58.4343 -42.0193 47.1738 -48.9545 36.5702 -55.3888L-74.2636 -121.673L-73.9594 -139.007L44.2839 -68.2907ZM-74.2967 -233.786L-74.5162 -221.073L-74.5333 -221.083L-74.9166 -199.132L-74.9123 -199.129L-75.5964 -159.842L-75.5921 -159.84L-75.8946 -142.499L-75.8989 -142.501L-76.2831 -120.551L-76.2814 -120.55L-76.6251 -100.901L-76.6217 -100.899L-76.9247 -83.5457L-76.9333 -83.5509L-77.3163 -61.5986L-77.3085 -61.594L-77.6116 -44.2637L-77.615 -44.2657L-78 -22.3159L2.94642 26.0973C10.1294 30.4052 17.6646 34.9502 25.123 39.523C36.0141 46.6399 46.7629 54.244 57.0439 62.1026C66.8554 70.1387 76.7157 78.6218 87.1765 88.0315L89.8731 90.5081C98.6856 98.5973 107.798 106.962 116.865 115.062C127.585 124.639 137.644 132.998 147.619 140.62C157.518 148.183 167.745 155.189 178.054 161.47L180.456 162.921C191.573 169.562 203.434 175.744 215.711 181.293C227.15 186.464 239.331 191.385 252.95 196.335C261.259 199.352 269.713 202.33 278.047 205.243L291.061 209.784C304.473 214.623 316.711 219.356 328.441 224.241C340.354 229.686 352.243 235.666 363.756 242.001L366.741 243.756C374.206 248.151 381.693 252.609 389.601 257.333L466.016 303.034L483.239 293.487L483.247 293.492L502.495 282.824L502.492 282.823L519.71 273.279L519.706 273.277L536.953 263.718L536.95 263.717L554.168 254.173L554.166 254.172L569.364 245.747L569.379 245.757L588.628 235.087L588.611 235.076L603.817 226.652L603.828 226.659L623.076 215.98L623.065 215.973L638.284 207.538L638.299 207.547L649.697 201.228L649.856 192.279L649.824 192.259L650.125 174.933L650.146 174.945L650.53 152.994L650.512 152.983L650.816 135.636L650.833 135.646L651.216 113.694L651.211 113.691L651.513 96.3567L651.517 96.3587L651.899 74.4073L651.888 74.4006L652.232 54.7653L522.198 -23.0055C519.316 -24.5921 516.439 -26.1909 513.565 -27.7938L503.905 -33.1847C499.418 -35.6846 494.864 -38.206 490.311 -40.6705L487.578 -42.1423C476.323 -48.1692 464.337 -54.111 451.956 -59.8026L448.346 -61.4456C439.587 -65.4092 430.079 -69.55 418.321 -74.5216L411.943 -77.214C402.337 -81.2814 390.5 -86.3916 378.849 -91.8591C366.232 -97.7723 354.802 -103.815 343.906 -110.332C333.472 -116.546 323.227 -123.418 312.594 -131.265L311.141 -132.341C301.151 -139.767 291.394 -147.489 283.439 -153.882L275.501 -160.279C267.681 -166.565 258.235 -174.065 248.651 -181.329C237.911 -189.473 227.109 -197.17 216.547 -204.206C211.394 -207.638 206.141 -211.035 200.961 -214.361L195.812 -217.661C191.764 -220.254 187.72 -222.845 183.662 -225.478L52.3702 -304L17.9215 -284.904L17.9198 -284.905L-35.7884 -255.134L-35.7824 -255.131L-50.9895 -246.702L-50.9947 -246.705L-74.2967 -233.786Z" fill="url(#paint0_linear_0_86)"/>
</g>
<defs>
<linearGradient id="paint0_linear_0_86" x1="-97.0005" y1="-125.058" x2="61.4674" y2="448.201" gradientUnits="userSpaceOnUse">
<stop stop-color="#FE0000" stop-opacity="0.01"/>
<stop offset="0.530221" stop-color="#FF0000" stop-opacity="0.48"/>
<stop offset="1" stop-color="#FE0000" stop-opacity="0.01"/>
</linearGradient>
<clipPath id="clip0_0_86">
<rect width="404" height="784" fill="white" transform="translate(0 -392)"/>
</clipPath>
</defs>
</svg>
